<svg xmlns="http://www.w3.org/2000/svg" xmlns:xlink="http://www.w3.org/1999/xlink" width="321" zoomAndPan="magnify" viewBox="0 0 240.75 141.750002" height="188" preserveAspectRatio="xMidYMid meet" version="1.0"><defs><g/><clipPath id="id1"><path d="M 0.0859375 0 L 240.414062 0 L 240.414062 141.5 L 0.0859375 141.5 Z M 0.0859375 0 " clip-rule="nonzero"/></clipPath><clipPath id="id2"><path d="M 83.292969 62.945312 L 106.890625 62.945312 L 106.890625 70.238281 L 83.292969 70.238281 Z M 83.292969 62.945312 " clip-rule="nonzero"/></clipPath><clipPath id="id3"><path d="M 139.222656 65.777344 L 157.652344 65.777344 L 157.652344 71.449219 L 139.222656 71.449219 Z M 139.222656 65.777344 " clip-rule="nonzero"/></clipPath><clipPath id="id4"><path d="M 113.878906 41.074219 L 130.085938 41.074219 L 130.085938 57.277344 L 113.878906 57.277344 Z M 113.878906 41.074219 " clip-rule="nonzero"/></clipPath><clipPath id="id5"><path d="M 83.292969 62.945312 L 106.890625 62.945312 L 106.890625 70.238281 L 83.292969 70.238281 Z M 83.292969 62.945312 " clip-rule="nonzero"/></clipPath><clipPath id="id6"><path d="M 139.222656 65.777344 L 157.652344 65.777344 L 157.652344 71.449219 L 139.222656 71.449219 Z M 139.222656 65.777344 " clip-rule="nonzero"/></clipPath><clipPath id="id7"><path d="M 113.878906 41.074219 L 130.085938 41.074219 L 130.085938 57.277344 L 113.878906 57.277344 Z M 113.878906 41.074219 " clip-rule="nonzero"/></clipPath><clipPath id="id8"><path d="M 83.292969 62.945312 L 106.890625 62.945312 L 106.890625 70.238281 L 83.292969 70.238281 Z M 83.292969 62.945312 " clip-rule="nonzero"/></clipPath><clipPath id="id9"><path d="M 139.222656 65.777344 L 157.652344 65.777344 L 157.652344 71.449219 L 139.222656 71.449219 Z M 139.222656 65.777344 " clip-rule="nonzero"/></clipPath><clipPath id="id10"><path d="M 113.878906 41.074219 L 130.085938 41.074219 L 130.085938 57.277344 L 113.878906 57.277344 Z M 113.878906 41.074219 " clip-rule="nonzero"/></clipPath></defs><g clip-path="url(#id1)"><path fill="#ffffff" d="M 0.0859375 0 L 240.664062 0 L 240.664062 148.390625 L 0.0859375 148.390625 Z M 0.0859375 0 " fill-opacity="1" fill-rule="nonzero"/><path fill="#ffffff" d="M 0.0859375 0 L 240.664062 0 L 240.664062 141.648438 L 0.0859375 141.648438 Z M 0.0859375 0 " fill-opacity="1" fill-rule="nonzero"/><path fill="#ffffff" d="M 0.0859375 0 L 240.664062 0 L 240.664062 141.648438 L 0.0859375 141.648438 Z M 0.0859375 0 " fill-opacity="1" fill-rule="nonzero"/><path fill="#ffffff" d="M 0.0859375 0 L 240.664062 0 L 240.664062 141.648438 L 0.0859375 141.648438 Z M 0.0859375 0 " fill-opacity="1" fill-rule="nonzero"/></g><g clip-path="url(#id2)"><path fill="#000000" d="M 85.644531 68.171875 C 85.917969 68.269531 86.167969 68.367188 86.425781 68.453125 C 86.683594 68.539062 86.890625 68.703125 87.089844 68.878906 C 87.230469 69.003906 87.273438 69.164062 87.210938 69.347656 C 87.167969 69.464844 87.121094 69.589844 87.0625 69.699219 C 86.839844 70.105469 86.46875 70.238281 86.027344 70.117188 C 85.453125 69.960938 85.277344 69.734375 85.179688 69.027344 C 85.15625 68.878906 85.175781 68.726562 85.175781 68.550781 C 85.074219 68.5625 84.972656 68.5625 84.875 68.589844 C 84.492188 68.683594 84.125 68.8125 83.820312 69.082031 C 83.714844 69.175781 83.5625 69.222656 83.429688 69.277344 C 83.339844 69.3125 83.3125 69.273438 83.34375 69.183594 C 83.421875 68.945312 83.574219 68.738281 83.78125 68.59375 C 84.222656 68.285156 84.695312 68.070312 85.25 68.097656 C 85.28125 68.101562 85.332031 68.066406 85.34375 68.039062 C 85.632812 67.34375 86.074219 66.765625 86.589844 66.21875 C 87.175781 65.597656 87.882812 65.101562 88.664062 64.753906 C 89.34375 64.453125 90.03125 64.128906 90.761719 63.972656 C 91.878906 63.730469 93.011719 63.714844 94.148438 63.90625 C 95.328125 64.105469 96.488281 64.398438 97.652344 64.675781 C 98.421875 64.859375 99.195312 65.050781 99.988281 65.097656 C 100.597656 65.132812 101.210938 65.125 101.820312 65.105469 C 102.308594 65.089844 102.792969 65.046875 103.277344 64.984375 C 103.855469 64.902344 104.390625 64.664062 104.925781 64.441406 C 105.621094 64.160156 106.1875 63.714844 106.601562 63.078125 C 106.644531 63.011719 106.695312 62.945312 106.785156 62.984375 C 106.875 63.019531 106.863281 63.109375 106.847656 63.179688 C 106.796875 63.398438 106.691406 63.597656 106.539062 63.757812 C 106.109375 64.210938 105.640625 64.601562 105.054688 64.832031 C 104.484375 65.0625 103.921875 65.320312 103.304688 65.410156 C 102.90625 65.46875 102.503906 65.511719 102.101562 65.53125 C 101.503906 65.5625 100.910156 65.585938 100.3125 65.574219 C 99.433594 65.558594 98.578125 65.359375 97.722656 65.164062 C 96.769531 64.953125 95.820312 64.707031 94.863281 64.503906 C 94.078125 64.335938 93.285156 64.203125 92.472656 64.226562 C 91.902344 64.246094 91.316406 64.230469 90.769531 64.402344 C 89.652344 64.761719 88.511719 65.082031 87.554688 65.804688 C 86.796875 66.375 86.148438 67.050781 85.742188 67.925781 C 85.703125 68.003906 85.675781 68.089844 85.644531 68.171875 Z M 85.535156 68.621094 C 85.472656 68.882812 85.519531 69.113281 85.59375 69.34375 C 85.691406 69.644531 85.976562 69.828125 86.308594 69.8125 C 86.597656 69.800781 86.765625 69.640625 86.847656 69.300781 C 86.847656 69.296875 86.851562 69.292969 86.851562 69.289062 C 86.832031 69.242188 86.828125 69.175781 86.792969 69.148438 C 86.433594 68.851562 85.996094 68.722656 85.535156 68.621094 Z M 85.535156 68.621094 " fill-opacity="1" fill-rule="nonzero"/></g><g clip-path="url(#id3)"><path fill="#000000" d="M 141.054688 69.84375 C 141.269531 69.921875 141.46875 69.996094 141.667969 70.0625 C 141.871094 70.128906 142.03125 70.257812 142.183594 70.390625 C 142.292969 70.488281 142.332031 70.617188 142.28125 70.757812 C 142.246094 70.851562 142.210938 70.945312 142.164062 71.03125 C 141.988281 71.347656 141.703125 71.449219 141.355469 71.355469 C 140.910156 71.234375 140.769531 71.058594 140.691406 70.507812 C 140.675781 70.394531 140.691406 70.273438 140.691406 70.136719 C 140.613281 70.148438 140.53125 70.148438 140.457031 70.167969 C 140.15625 70.238281 139.871094 70.339844 139.632812 70.550781 C 139.550781 70.625 139.433594 70.660156 139.328125 70.703125 C 139.257812 70.730469 139.234375 70.703125 139.261719 70.628906 C 139.320312 70.445312 139.441406 70.28125 139.601562 70.171875 C 139.945312 69.933594 140.316406 69.765625 140.75 69.785156 C 140.773438 69.785156 140.8125 69.761719 140.820312 69.738281 C 141.046875 69.199219 141.394531 68.75 141.796875 68.324219 C 142.253906 67.84375 142.804688 67.453125 143.417969 67.1875 C 143.945312 66.949219 144.484375 66.699219 145.050781 66.578125 C 145.925781 66.390625 146.8125 66.378906 147.699219 66.527344 C 148.621094 66.679688 149.527344 66.90625 150.433594 67.125 C 151.039062 67.265625 151.640625 67.417969 152.257812 67.453125 C 152.734375 67.480469 153.214844 67.472656 153.691406 67.457031 C 154.070312 67.445312 154.453125 67.414062 154.828125 67.363281 C 155.28125 67.300781 155.699219 67.113281 156.117188 66.941406 C 156.660156 66.722656 157.105469 66.375 157.425781 65.882812 C 157.460938 65.832031 157.5 65.777344 157.570312 65.808594 C 157.636719 65.835938 157.632812 65.90625 157.617188 65.960938 C 157.578125 66.128906 157.496094 66.285156 157.378906 66.410156 C 157.042969 66.761719 156.675781 67.066406 156.21875 67.246094 C 155.769531 67.425781 155.332031 67.625 154.851562 67.695312 C 154.539062 67.742188 154.226562 67.773438 153.910156 67.789062 C 153.445312 67.8125 152.980469 67.832031 152.515625 67.824219 C 151.828125 67.8125 151.160156 67.65625 150.492188 67.503906 C 149.746094 67.339844 149.003906 67.148438 148.257812 66.988281 C 147.644531 66.859375 147.023438 66.753906 146.390625 66.773438 C 145.945312 66.789062 145.484375 66.777344 145.0625 66.914062 C 144.1875 67.191406 143.296875 67.441406 142.550781 68.003906 C 141.957031 68.445312 141.449219 68.972656 141.132812 69.652344 C 141.101562 69.714844 141.082031 69.777344 141.054688 69.84375 Z M 140.972656 70.191406 C 140.921875 70.394531 140.960938 70.574219 141.019531 70.753906 C 141.09375 70.988281 141.316406 71.132812 141.574219 71.121094 C 141.800781 71.109375 141.933594 70.984375 141.996094 70.71875 C 141.996094 70.71875 142 70.714844 142 70.710938 C 141.984375 70.675781 141.980469 70.625 141.957031 70.601562 C 141.671875 70.371094 141.332031 70.273438 140.972656 70.191406 Z M 140.972656 70.191406 " fill-opacity="1" fill-rule="nonzero"/></g><g clip-path="url(#id4)"><path fill="#000000" d="M 121.980469 41.074219 C 126.457031 41.074219 130.082031 44.699219 130.082031 49.175781 C 130.082031 53.648438 126.457031 57.277344 121.980469 57.277344 C 117.507812 57.277344 113.878906 53.648438 113.878906 49.175781 C 113.878906 44.699219 117.507812 41.074219 121.980469 41.074219 " fill-opacity="1" fill-rule="nonzero"/></g><path fill="#f7f7f7" d="M 124.113281 46.234375 C 124.148438 46.082031 124.183594 45.925781 124.21875 45.773438 C 124.265625 45.558594 123.9375 45.46875 123.890625 45.683594 C 123.855469 45.835938 123.820312 45.992188 123.785156 46.144531 C 123.738281 46.359375 124.066406 46.449219 124.113281 46.234375 " fill-opacity="1" fill-rule="nonzero"/><path fill="#f7f7f7" d="M 124.089844 49.324219 C 123.992188 49.015625 123.769531 48.753906 123.703125 48.441406 C 123.644531 48.171875 123.746094 47.878906 123.804688 47.617188 C 123.871094 47.3125 123.941406 47.007812 124.007812 46.707031 C 124.054688 46.492188 123.726562 46.402344 123.679688 46.617188 C 123.613281 46.910156 123.546875 47.203125 123.484375 47.496094 C 123.421875 47.773438 123.335938 48.054688 123.351562 48.34375 C 123.367188 48.667969 123.539062 48.902344 123.671875 49.1875 C 123.800781 49.457031 123.863281 49.761719 123.898438 50.058594 C 123.925781 50.300781 123.929688 50.542969 123.921875 50.789062 C 123.917969 50.839844 123.914062 50.890625 123.910156 50.945312 C 122.621094 50.945312 121.328125 50.945312 120.039062 50.945312 C 120.027344 50.808594 120.023438 50.671875 120.023438 50.535156 C 120.023438 50.140625 120.078125 49.75 120.203125 49.375 C 120.269531 49.164062 119.941406 49.074219 119.875 49.285156 C 119.675781 49.878906 119.636719 50.539062 119.71875 51.160156 C 119.730469 51.234375 119.816406 51.285156 119.882812 51.285156 C 121.277344 51.285156 122.671875 51.285156 124.066406 51.285156 C 124.132812 51.285156 124.21875 51.234375 124.230469 51.160156 C 124.273438 50.839844 124.273438 50.511719 124.25 50.1875 C 124.230469 49.898438 124.175781 49.605469 124.089844 49.324219 " fill-opacity="1" fill-rule="nonzero"/><path fill="#f7f7f7" d="M 123.382812 44.332031 C 123.179688 44.328125 122.976562 44.292969 122.773438 44.261719 C 122.777344 44.101562 122.78125 43.941406 122.761719 43.78125 C 122.738281 43.589844 122.644531 43.398438 122.480469 43.289062 C 122.34375 43.191406 122.203125 43.183594 122.042969 43.183594 C 121.910156 43.183594 121.777344 43.171875 121.652344 43.226562 C 121.453125 43.308594 121.332031 43.488281 121.273438 43.6875 C 121.226562 43.863281 121.238281 44.0625 121.246094 44.253906 C 121.097656 44.269531 120.949219 44.285156 120.800781 44.304688 C 120.542969 44.332031 120.292969 44.335938 120.054688 44.445312 C 119.785156 44.566406 119.542969 44.925781 119.609375 45.230469 C 119.632812 45.339844 119.660156 45.449219 119.683594 45.558594 C 119.796875 46.066406 119.910156 46.574219 120.023438 47.078125 C 120.09375 47.390625 120.152344 47.710938 120.234375 48.019531 C 120.304688 48.265625 120.25 48.542969 120.121094 48.761719 C 120.007812 48.949219 120.300781 49.121094 120.414062 48.933594 C 120.660156 48.523438 120.605469 48.113281 120.507812 47.679688 C 120.398438 47.1875 120.285156 46.695312 120.175781 46.203125 C 120.097656 45.851562 120.019531 45.496094 119.9375 45.144531 C 119.917969 45.046875 120.027344 44.890625 120.097656 44.824219 C 120.226562 44.699219 120.402344 44.691406 120.570312 44.671875 C 120.785156 44.644531 121.003906 44.621094 121.21875 44.597656 C 121.285156 44.589844 121.355469 44.582031 121.421875 44.574219 C 121.511719 44.5625 121.589844 44.503906 121.589844 44.402344 C 121.589844 44.238281 121.589844 44.074219 121.589844 43.90625 C 121.589844 43.78125 121.625 43.671875 121.714844 43.582031 C 121.789062 43.503906 121.914062 43.523438 122.011719 43.523438 C 122.101562 43.523438 122.191406 43.511719 122.277344 43.558594 C 122.394531 43.621094 122.429688 43.78125 122.429688 43.90625 C 122.429688 44.074219 122.429688 44.242188 122.429688 44.410156 C 122.429688 44.511719 122.507812 44.570312 122.601562 44.582031 C 122.832031 44.609375 123.066406 44.636719 123.300781 44.660156 C 123.636719 44.699219 123.992188 44.765625 124.003906 45.183594 C 124.011719 45.402344 124.351562 45.402344 124.34375 45.183594 C 124.328125 44.644531 123.894531 44.339844 123.382812 44.332031 " fill-opacity="1" fill-rule="nonzero"/><path fill="#f7f7f7" d="M 122.960938 53.921875 C 122.695312 53.886719 122.414062 53.90625 122.144531 53.910156 C 122.144531 53.164062 122.144531 52.417969 122.144531 51.671875 C 122.144531 51.453125 121.804688 51.453125 121.804688 51.671875 C 121.804688 52.421875 121.804688 53.167969 121.804688 53.914062 C 121.546875 53.910156 121.289062 53.90625 121.035156 53.914062 C 120.730469 53.929688 120.488281 54.152344 120.402344 54.433594 C 120.351562 54.605469 120.378906 54.816406 120.378906 54.992188 C 120.378906 55.210938 120.71875 55.210938 120.71875 54.992188 C 120.71875 54.699219 120.667969 54.253906 121.09375 54.253906 C 121.328125 54.253906 121.566406 54.253906 121.804688 54.253906 C 121.804688 54.492188 121.804688 54.726562 121.804688 54.964844 C 121.804688 55.183594 122.144531 55.183594 122.144531 54.964844 C 122.144531 54.726562 122.144531 54.492188 122.144531 54.253906 C 122.378906 54.253906 122.613281 54.253906 122.847656 54.253906 C 123.277344 54.253906 123.230469 54.695312 123.230469 54.992188 C 123.230469 55.210938 123.570312 55.210938 123.570312 54.992188 C 123.570312 54.828125 123.589844 54.640625 123.554688 54.476562 C 123.492188 54.1875 123.257812 53.960938 122.960938 53.921875 " fill-opacity="1" fill-rule="nonzero"/><g fill="#000000" fill-opacity="1"><g transform="translate(103.420475, 74.624032)"><g><path d="M 10.230469 -4.503906 C 10.140625 -4.546875 10.054688 -4.503906 10.011719 -4.441406 C 7.792969 -0.5 6.769531 0.109375 6.3125 -0.0664062 C 5.570312 -0.347656 6.070312 -2.199219 6.550781 -4.003906 C 6.703125 -4.527344 6.855469 -5.09375 6.964844 -5.636719 L 7.226562 -6.679688 C 7.945312 -9.640625 9.164062 -14.601562 7.441406 -15.453125 C 6.984375 -15.691406 6.464844 -15.667969 5.941406 -15.429688 L 5.941406 -15.410156 L 5.898438 -15.410156 C 4.875 -14.886719 3.960938 -13.515625 3.375 -12.058594 C 3.480469 -13.144531 3.613281 -14.320312 3.722656 -15.582031 C 3.765625 -15.953125 3.570312 -16.277344 3.265625 -16.476562 L 2.851562 -16.714844 C 2.765625 -16.757812 2.699219 -16.78125 2.613281 -16.78125 C 2.523438 -16.78125 2.460938 -16.757812 2.394531 -16.714844 C 2.242188 -16.648438 2.175781 -16.519531 2.15625 -16.367188 C 2.066406 -12.90625 1.175781 -4.808594 0.0234375 -1.9375 C -0.0234375 -1.804688 0 -1.675781 0.109375 -1.566406 C 0.175781 -1.5 0.28125 -1.457031 0.371094 -1.457031 C 0.414062 -1.457031 0.480469 -1.457031 0.523438 -1.480469 C 0.847656 -1.632812 1.132812 -1.785156 1.328125 -1.980469 C 1.5 -2.109375 1.609375 -2.308594 1.675781 -2.523438 C 1.828125 -3.089844 2.503906 -5.570312 3.113281 -10.097656 C 3.480469 -12.011719 4.65625 -14.429688 6.050781 -15.125 L 6.070312 -15.125 C 6.222656 -15.191406 6.332031 -15.210938 6.441406 -15.167969 C 6.617188 -15.105469 6.769531 -14.886719 6.921875 -14.539062 C 7.160156 -13.90625 6.921875 -11.359375 5.832031 -7.136719 L 5.765625 -6.941406 C 4.699219 -2.785156 4.375 -1.546875 4.789062 -0.457031 C 4.898438 -0.152344 5.136719 0.0664062 5.484375 0.175781 C 5.703125 0.261719 5.964844 0.304688 6.203125 0.304688 C 6.507812 0.304688 6.769531 0.261719 6.878906 0.175781 L 6.921875 0.175781 C 7.964844 -0.347656 9.226562 -2.394531 10.292969 -4.289062 C 10.335938 -4.351562 10.292969 -4.460938 10.230469 -4.503906 Z M 10.230469 -4.503906 "/></g></g></g><g fill="#000000" fill-opacity="1"><g transform="translate(113.366178, 74.624032)"><g><path d="M 8.160156 -4.441406 C 8.117188 -4.503906 8.007812 -4.546875 7.945312 -4.484375 C 7.921875 -4.484375 6.222656 -3.417969 4.636719 -3.785156 C 4.851562 -4.441406 4.941406 -5.113281 4.917969 -5.722656 C 4.851562 -6.832031 4.394531 -7.617188 3.613281 -7.898438 C 3.132812 -8.074219 2.65625 -8.050781 2.175781 -7.8125 C 1.261719 -7.335938 0.480469 -6.09375 0 -4.394531 C -0.414062 -2.917969 0.0859375 -1.851562 0.675781 -1.347656 C 1.023438 -1.066406 1.414062 -0.9375 1.828125 -0.9375 C 2.109375 -0.9375 2.371094 -1 2.632812 -1.132812 C 3.503906 -1.546875 4.15625 -2.460938 4.527344 -3.460938 C 4.789062 -3.417969 5.050781 -3.375 5.332031 -3.375 C 5.613281 -3.375 5.941406 -3.417969 6.269531 -3.480469 C 7.289062 -3.699219 8.074219 -4.199219 8.117188 -4.222656 C 8.183594 -4.265625 8.203125 -4.375 8.160156 -4.441406 Z M 2.960938 -1.71875 C 2.613281 -1.457031 2.242188 -1.4375 1.914062 -1.652344 C 1.4375 -1.980469 1.042969 -2.894531 1.457031 -4.441406 C 1.632812 -5.09375 1.894531 -5.660156 2.21875 -6.09375 C 2.242188 -5.679688 2.394531 -5.113281 2.9375 -4.484375 C 3.285156 -4.070312 3.679688 -3.765625 4.15625 -3.589844 C 4.179688 -3.570312 4.199219 -3.570312 4.222656 -3.570312 C 3.9375 -2.828125 3.503906 -2.15625 2.960938 -1.71875 Z M 4.332031 -3.875 C 4.308594 -3.875 4.289062 -3.875 4.265625 -3.894531 C 3.9375 -4.027344 3.679688 -4.308594 3.527344 -4.699219 C 3.175781 -5.59375 3.394531 -6.789062 3.527344 -7.160156 C 3.589844 -7.183594 3.632812 -7.183594 3.679688 -7.183594 C 3.984375 -7.226562 4.222656 -7.074219 4.351562 -6.769531 C 4.527344 -6.398438 4.59375 -5.984375 4.59375 -5.703125 C 4.636719 -5.136719 4.527344 -4.484375 4.332031 -3.875 Z M 4.332031 -3.875 "/></g></g></g><g fill="#000000" fill-opacity="1"><g transform="translate(121.048524, 74.624032)"><g><path d="M 5.550781 -4.484375 C 5.484375 -4.527344 5.375 -4.527344 5.332031 -4.460938 C 5.308594 -4.441406 4.59375 -3.527344 2.742188 -2.613281 C 2.503906 -3.394531 2.089844 -4.003906 1.71875 -4.570312 C 1.304688 -5.179688 0.957031 -5.703125 0.914062 -6.3125 C 0.871094 -7.269531 1.480469 -8.226562 2.089844 -8.554688 C 2.199219 -8.617188 2.414062 -8.707031 2.566406 -8.597656 C 2.65625 -8.53125 2.742188 -8.464844 2.785156 -8.378906 C 3.046875 -8.007812 3.113281 -7.421875 2.9375 -6.984375 C 2.894531 -6.898438 2.9375 -6.8125 3.003906 -6.769531 C 3.089844 -6.746094 3.175781 -6.769531 3.222656 -6.855469 C 3.460938 -7.378906 3.375 -8.097656 3.046875 -8.574219 C 2.980469 -8.683594 2.871094 -8.769531 2.785156 -8.859375 L 2.765625 -8.859375 L 2.765625 -8.878906 C 2.503906 -9.074219 2.175781 -9.164062 1.804688 -9.140625 C 1.152344 -9.097656 0.523438 -8.75 0.0664062 -8.160156 C -0.480469 -7.464844 -0.675781 -6.574219 -0.523438 -5.636719 C -0.371094 -4.875 0.0234375 -4.289062 0.433594 -3.722656 C 0.785156 -3.222656 1.152344 -2.675781 1.347656 -2.003906 C 0.175781 -1.546875 -0.609375 -0.71875 -0.761719 0.238281 C -0.847656 0.738281 -0.71875 1.195312 -0.433594 1.4375 C -0.304688 1.546875 -0.152344 1.609375 0.0429688 1.652344 C 0.21875 1.71875 0.414062 1.742188 0.609375 1.742188 C 1.042969 1.742188 1.523438 1.589844 1.914062 1.304688 C 2.414062 0.914062 3.003906 0.128906 2.9375 -1.457031 C 2.917969 -1.761719 2.894531 -2.023438 2.828125 -2.285156 C 4.789062 -3.265625 5.550781 -4.199219 5.570312 -4.265625 C 5.636719 -4.332031 5.613281 -4.417969 5.550781 -4.484375 Z M 0.675781 1.285156 C 0.347656 1.457031 -0.0234375 1.347656 -0.21875 1.195312 C -0.414062 1.023438 -0.5 0.675781 -0.433594 0.28125 C -0.390625 -0.0234375 -0.109375 -1.066406 1.414062 -1.675781 C 1.457031 -1.5 1.480469 -1.328125 1.480469 -1.132812 C 1.546875 0.585938 1.023438 1.109375 0.675781 1.285156 Z M 0.675781 1.285156 "/></g></g></g><g fill="#000000" fill-opacity="1"><g transform="translate(126.293411, 74.624032)"><g><path d="M 5.550781 -4.484375 C 5.484375 -4.527344 5.375 -4.527344 5.332031 -4.460938 C 5.308594 -4.441406 4.59375 -3.527344 2.742188 -2.613281 C 2.503906 -3.394531 2.089844 -4.003906 1.71875 -4.570312 C 1.304688 -5.179688 0.957031 -5.703125 0.914062 -6.3125 C 0.871094 -7.269531 1.480469 -8.226562 2.089844 -8.554688 C 2.199219 -8.617188 2.414062 -8.707031 2.566406 -8.597656 C 2.65625 -8.53125 2.742188 -8.464844 2.785156 -8.378906 C 3.046875 -8.007812 3.113281 -7.421875 2.9375 -6.984375 C 2.894531 -6.898438 2.9375 -6.8125 3.003906 -6.769531 C 3.089844 -6.746094 3.175781 -6.769531 3.222656 -6.855469 C 3.460938 -7.378906 3.375 -8.097656 3.046875 -8.574219 C 2.980469 -8.683594 2.871094 -8.769531 2.785156 -8.859375 L 2.765625 -8.859375 L 2.765625 -8.878906 C 2.503906 -9.074219 2.175781 -9.164062 1.804688 -9.140625 C 1.152344 -9.097656 0.523438 -8.75 0.0664062 -8.160156 C -0.480469 -7.464844 -0.675781 -6.574219 -0.523438 -5.636719 C -0.371094 -4.875 0.0234375 -4.289062 0.433594 -3.722656 C 0.785156 -3.222656 1.152344 -2.675781 1.347656 -2.003906 C 0.175781 -1.546875 -0.609375 -0.71875 -0.761719 0.238281 C -0.847656 0.738281 -0.71875 1.195312 -0.433594 1.4375 C -0.304688 1.546875 -0.152344 1.609375 0.0429688 1.652344 C 0.21875 1.71875 0.414062 1.742188 0.609375 1.742188 C 1.042969 1.742188 1.523438 1.589844 1.914062 1.304688 C 2.414062 0.914062 3.003906 0.128906 2.9375 -1.457031 C 2.917969 -1.761719 2.894531 -2.023438 2.828125 -2.285156 C 4.789062 -3.265625 5.550781 -4.199219 5.570312 -4.265625 C 5.636719 -4.332031 5.613281 -4.417969 5.550781 -4.484375 Z M 0.675781 1.285156 C 0.347656 1.457031 -0.0234375 1.347656 -0.21875 1.195312 C -0.414062 1.023438 -0.5 0.675781 -0.433594 0.28125 C -0.390625 -0.0234375 -0.109375 -1.066406 1.414062 -1.675781 C 1.457031 -1.5 1.480469 -1.328125 1.480469 -1.132812 C 1.546875 0.585938 1.023438 1.109375 0.675781 1.285156 Z M 0.675781 1.285156 "/></g></g></g><g fill="#000000" fill-opacity="1"><g transform="translate(131.538298, 74.624032)"><g><path d="M 8.160156 -4.441406 C 8.117188 -4.503906 8.007812 -4.546875 7.945312 -4.484375 C 7.921875 -4.484375 6.222656 -3.417969 4.636719 -3.785156 C 4.851562 -4.441406 4.941406 -5.113281 4.917969 -5.722656 C 4.851562 -6.832031 4.394531 -7.617188 3.613281 -7.898438 C 3.132812 -8.074219 2.65625 -8.050781 2.175781 -7.8125 C 1.261719 -7.335938 0.480469 -6.09375 0 -4.394531 C -0.414062 -2.917969 0.0859375 -1.851562 0.675781 -1.347656 C 1.023438 -1.066406 1.414062 -0.9375 1.828125 -0.9375 C 2.109375 -0.9375 2.371094 -1 2.632812 -1.132812 C 3.503906 -1.546875 4.15625 -2.460938 4.527344 -3.460938 C 4.789062 -3.417969 5.050781 -3.375 5.332031 -3.375 C 5.613281 -3.375 5.941406 -3.417969 6.269531 -3.480469 C 7.289062 -3.699219 8.074219 -4.199219 8.117188 -4.222656 C 8.183594 -4.265625 8.203125 -4.375 8.160156 -4.441406 Z M 2.960938 -1.71875 C 2.613281 -1.457031 2.242188 -1.4375 1.914062 -1.652344 C 1.4375 -1.980469 1.042969 -2.894531 1.457031 -4.441406 C 1.632812 -5.09375 1.894531 -5.660156 2.21875 -6.09375 C 2.242188 -5.679688 2.394531 -5.113281 2.9375 -4.484375 C 3.285156 -4.070312 3.679688 -3.765625 4.15625 -3.589844 C 4.179688 -3.570312 4.199219 -3.570312 4.222656 -3.570312 C 3.9375 -2.828125 3.503906 -2.15625 2.960938 -1.71875 Z M 4.332031 -3.875 C 4.308594 -3.875 4.289062 -3.875 4.265625 -3.894531 C 3.9375 -4.027344 3.679688 -4.308594 3.527344 -4.699219 C 3.175781 -5.59375 3.394531 -6.789062 3.527344 -7.160156 C 3.589844 -7.183594 3.632812 -7.183594 3.679688 -7.183594 C 3.984375 -7.226562 4.222656 -7.074219 4.351562 -6.769531 C 4.527344 -6.398438 4.59375 -5.984375 4.59375 -5.703125 C 4.636719 -5.136719 4.527344 -4.484375 4.332031 -3.875 Z M 4.332031 -3.875 "/></g></g></g><g fill="#000000" fill-opacity="1"><g transform="translate(93.293999, 89.257245)"><g><path d="M 5.125 0.167969 C 5.652344 0.167969 6.070312 0.113281 6.515625 0 L 6.515625 -1.019531 C 6.070312 -0.910156 5.652344 -0.851562 5.125 -0.851562 C 3.410156 -0.851562 1.792969 -2.097656 1.792969 -5.046875 C 1.792969 -8 3.410156 -9.253906 5.125 -9.253906 C 5.652344 -9.253906 6.070312 -9.199219 6.515625 -9.085938 L 6.515625 -10.097656 C 6.070312 -10.207031 5.664062 -10.265625 5.136719 -10.265625 C 2.558594 -10.265625 0.671875 -8.300781 0.671875 -5.046875 C 0.671875 -1.792969 2.546875 0.167969 5.125 0.167969 Z M 5.125 0.167969 "/></g></g></g><g fill="#000000" fill-opacity="1"><g transform="translate(104.141326, 89.257245)"><g><path d="M 2.199219 0.167969 C 3.980469 0.167969 4.945312 -1.234375 5.058594 -1.660156 L 5.058594 0 L 6.179688 0 L 6.179688 -3.914062 C 6.179688 -5.574219 4.957031 -6.898438 2.972656 -6.898438 C 2.054688 -6.898438 1.480469 -6.785156 0.832031 -6.460938 L 0.832031 -5.417969 C 1.390625 -5.722656 1.875 -5.890625 2.757812 -5.890625 C 4.183594 -5.890625 5.046875 -5.058594 5.058594 -3.824219 C 4.542969 -3.980469 3.980469 -4.070312 3.421875 -4.070312 C 1.839844 -4.070312 0.335938 -3.367188 0.335938 -1.605469 C 0.335938 -0.671875 1.042969 0.167969 2.199219 0.167969 Z M 1.457031 -1.726562 C 1.457031 -2.601562 2.578125 -3.050781 3.511719 -3.050781 C 3.949219 -3.050781 4.699219 -2.996094 5.058594 -2.828125 L 5.058594 -2.332031 C 4.824219 -1.480469 3.632812 -0.820312 2.46875 -0.820312 C 1.941406 -0.820312 1.457031 -1.132812 1.457031 -1.726562 Z M 1.457031 -1.726562 "/></g></g></g><g fill="#000000" fill-opacity="1"><g transform="translate(114.988652, 89.257245)"><g><path d="M 3.175781 0.167969 C 5.070312 0.167969 6.40625 -1.078125 6.40625 -3.523438 C 6.40625 -5.125 5.5625 -6.898438 3.714844 -6.898438 C 2.828125 -6.898438 2.019531 -6.238281 1.792969 -5.429688 L 1.792969 -10.097656 L 0.671875 -10.097656 L 0.671875 -2.121094 C 0.671875 -1.078125 1.558594 0.167969 3.175781 0.167969 Z M 1.792969 -4.476562 C 1.792969 -5.304688 2.390625 -5.945312 3.207031 -5.945312 C 4.6875 -5.945312 5.261719 -4.644531 5.261719 -3.488281 C 5.261719 -2.152344 4.667969 -0.839844 3.242188 -0.839844 C 2.445312 -0.839844 1.792969 -1.367188 1.792969 -2.355469 Z M 1.792969 -4.476562 "/></g></g></g><g fill="#000000" fill-opacity="1"><g transform="translate(126.060329, 89.257245)"><g><path d="M 0.671875 0 L 1.792969 0 L 1.792969 -6.730469 L 0.671875 -6.730469 Z M 0.582031 -8.414062 C 0.582031 -8.054688 0.875 -7.761719 1.222656 -7.761719 C 1.582031 -7.761719 1.875 -8.054688 1.875 -8.414062 C 1.875 -8.761719 1.582031 -9.050781 1.222656 -9.050781 C 0.875 -9.050781 0.582031 -8.761719 0.582031 -8.414062 Z M 0.582031 -8.414062 "/></g></g></g><g fill="#000000" fill-opacity="1"><g transform="translate(132.510392, 89.257245)"><g><path d="M 3.34375 0.179688 C 4.261719 0.179688 5.015625 -0.4375 5.292969 -1.265625 L 5.292969 0.0117188 L 6.417969 0.0117188 L 6.417969 -10.097656 L 5.292969 -10.097656 L 5.292969 -6.28125 C 4.957031 -6.664062 4.453125 -6.898438 3.8125 -6.898438 C 1.582031 -6.898438 0.671875 -4.992188 0.671875 -3.164062 C 0.671875 -1.378906 1.617188 0.179688 3.34375 0.179688 Z M 3.871094 -5.878906 C 4.65625 -5.878906 5.113281 -5.417969 5.292969 -4.835938 L 5.292969 -2.78125 C 5.292969 -1.515625 4.464844 -0.820312 3.511719 -0.820312 C 2.390625 -0.820312 1.804688 -1.964844 1.804688 -3.164062 C 1.804688 -4.488281 2.332031 -5.878906 3.871094 -5.878906 Z M 3.871094 -5.878906 "/></g></g></g><g fill="#000000" fill-opacity="1"><g transform="translate(143.593289, 89.257245)"><g><path d="M 0.671875 -3.367188 C 0.671875 -1.289062 1.875 0.167969 3.9375 0.167969 C 5.988281 0.167969 6.605469 -0.839844 6.605469 -0.839844 L 6.136719 -1.683594 C 5.6875 -1.15625 4.925781 -0.851562 4.21875 -0.851562 C 3.074219 -0.851562 2.019531 -1.46875 1.839844 -2.894531 C 2.253906 -2.511719 3.007812 -2.175781 3.835938 -2.175781 C 5.507812 -2.175781 6.472656 -3.355469 6.472656 -4.589844 C 6.472656 -6.078125 5.238281 -6.898438 3.902344 -6.898438 C 2.355469 -6.898438 0.671875 -5.8125 0.671875 -3.367188 Z M 1.875 -4.039062 C 2.121094 -5.304688 3.085938 -5.890625 3.9375 -5.890625 C 4.667969 -5.890625 5.351562 -5.40625 5.351562 -4.554688 C 5.351562 -3.871094 4.8125 -3.175781 3.746094 -3.175781 C 3.015625 -3.175781 2.265625 -3.5 1.875 -4.039062 Z M 1.875 -4.039062 "/></g></g></g><g clip-path="url(#id5)"><path fill="#000000" d="M 85.644531 68.171875 C 85.917969 68.269531 86.167969 68.367188 86.425781 68.453125 C 86.683594 68.539062 86.890625 68.703125 87.089844 68.878906 C 87.230469 69.003906 87.273438 69.164062 87.210938 69.347656 C 87.167969 69.464844 87.121094 69.589844 87.0625 69.699219 C 86.839844 70.105469 86.46875 70.238281 86.027344 70.117188 C 85.453125 69.960938 85.277344 69.734375 85.179688 69.027344 C 85.15625 68.878906 85.175781 68.726562 85.175781 68.550781 C 85.074219 68.5625 84.972656 68.5625 84.875 68.589844 C 84.492188 68.683594 84.125 68.8125 83.820312 69.082031 C 83.714844 69.175781 83.5625 69.222656 83.429688 69.277344 C 83.339844 69.3125 83.3125 69.273438 83.34375 69.183594 C 83.421875 68.945312 83.574219 68.738281 83.78125 68.59375 C 84.222656 68.285156 84.695312 68.070312 85.25 68.097656 C 85.28125 68.101562 85.332031 68.066406 85.34375 68.039062 C 85.632812 67.34375 86.074219 66.765625 86.589844 66.21875 C 87.175781 65.597656 87.882812 65.101562 88.664062 64.753906 C 89.34375 64.453125 90.03125 64.128906 90.761719 63.972656 C 91.878906 63.730469 93.011719 63.714844 94.148438 63.90625 C 95.328125 64.105469 96.488281 64.398438 97.652344 64.675781 C 98.421875 64.859375 99.195312 65.050781 99.988281 65.097656 C 100.597656 65.132812 101.210938 65.125 101.820312 65.105469 C 102.308594 65.089844 102.792969 65.046875 103.277344 64.984375 C 103.855469 64.902344 104.390625 64.664062 104.925781 64.441406 C 105.621094 64.160156 106.1875 63.714844 106.601562 63.078125 C 106.644531 63.011719 106.695312 62.945312 106.785156 62.984375 C 106.875 63.019531 106.863281 63.109375 106.847656 63.179688 C 106.796875 63.398438 106.691406 63.597656 106.539062 63.757812 C 106.109375 64.210938 105.640625 64.601562 105.054688 64.832031 C 104.484375 65.0625 103.921875 65.320312 103.304688 65.410156 C 102.90625 65.46875 102.503906 65.511719 102.101562 65.53125 C 101.503906 65.5625 100.910156 65.585938 100.3125 65.574219 C 99.433594 65.558594 98.578125 65.359375 97.722656 65.164062 C 96.769531 64.953125 95.820312 64.707031 94.863281 64.503906 C 94.078125 64.335938 93.285156 64.203125 92.472656 64.226562 C 91.902344 64.246094 91.316406 64.230469 90.769531 64.402344 C 89.652344 64.761719 88.511719 65.082031 87.554688 65.804688 C 86.796875 66.375 86.148438 67.050781 85.742188 67.925781 C 85.703125 68.003906 85.675781 68.089844 85.644531 68.171875 Z M 85.535156 68.621094 C 85.472656 68.882812 85.519531 69.113281 85.59375 69.34375 C 85.691406 69.644531 85.976562 69.828125 86.308594 69.8125 C 86.597656 69.800781 86.765625 69.640625 86.847656 69.300781 C 86.847656 69.296875 86.851562 69.292969 86.851562 69.289062 C 86.832031 69.242188 86.828125 69.175781 86.792969 69.148438 C 86.433594 68.851562 85.996094 68.722656 85.535156 68.621094 Z M 85.535156 68.621094 " fill-opacity="1" fill-rule="nonzero"/></g><g clip-path="url(#id6)"><path fill="#000000" d="M 141.054688 69.84375 C 141.269531 69.921875 141.46875 69.996094 141.667969 70.0625 C 141.871094 70.128906 142.03125 70.257812 142.183594 70.390625 C 142.292969 70.488281 142.332031 70.617188 142.28125 70.757812 C 142.246094 70.851562 142.210938 70.945312 142.164062 71.03125 C 141.988281 71.347656 141.703125 71.449219 141.355469 71.355469 C 140.910156 71.234375 140.769531 71.058594 140.691406 70.507812 C 140.675781 70.394531 140.691406 70.273438 140.691406 70.136719 C 140.613281 70.148438 140.53125 70.148438 140.457031 70.167969 C 140.15625 70.238281 139.871094 70.339844 139.632812 70.550781 C 139.550781 70.625 139.433594 70.660156 139.328125 70.703125 C 139.257812 70.730469 139.234375 70.703125 139.261719 70.628906 C 139.320312 70.445312 139.441406 70.28125 139.601562 70.171875 C 139.945312 69.933594 140.316406 69.765625 140.75 69.785156 C 140.773438 69.785156 140.8125 69.761719 140.820312 69.738281 C 141.046875 69.199219 141.394531 68.75 141.796875 68.324219 C 142.253906 67.84375 142.804688 67.453125 143.417969 67.1875 C 143.945312 66.949219 144.484375 66.699219 145.050781 66.578125 C 145.925781 66.390625 146.8125 66.378906 147.699219 66.527344 C 148.621094 66.679688 149.527344 66.90625 150.433594 67.125 C 151.039062 67.265625 151.640625 67.417969 152.257812 67.453125 C 152.734375 67.480469 153.214844 67.472656 153.691406 67.457031 C 154.070312 67.445312 154.453125 67.414062 154.828125 67.363281 C 155.28125 67.300781 155.699219 67.113281 156.117188 66.941406 C 156.660156 66.722656 157.105469 66.375 157.425781 65.882812 C 157.460938 65.832031 157.5 65.777344 157.570312 65.808594 C 157.636719 65.835938 157.632812 65.90625 157.617188 65.960938 C 157.578125 66.128906 157.496094 66.285156 157.378906 66.410156 C 157.042969 66.761719 156.675781 67.066406 156.21875 67.246094 C 155.769531 67.425781 155.332031 67.625 154.851562 67.695312 C 154.539062 67.742188 154.226562 67.773438 153.910156 67.789062 C 153.445312 67.8125 152.980469 67.832031 152.515625 67.824219 C 151.828125 67.8125 151.160156 67.65625 150.492188 67.503906 C 149.746094 67.339844 149.003906 67.148438 148.257812 66.988281 C 147.644531 66.859375 147.023438 66.753906 146.390625 66.773438 C 145.945312 66.789062 145.484375 66.777344 145.0625 66.914062 C 144.1875 67.191406 143.296875 67.441406 142.550781 68.003906 C 141.957031 68.445312 141.449219 68.972656 141.132812 69.652344 C 141.101562 69.714844 141.082031 69.777344 141.054688 69.84375 Z M 140.972656 70.191406 C 140.921875 70.394531 140.960938 70.574219 141.019531 70.753906 C 141.09375 70.988281 141.316406 71.132812 141.574219 71.121094 C 141.800781 71.109375 141.933594 70.984375 141.996094 70.71875 C 141.996094 70.71875 142 70.714844 142 70.710938 C 141.984375 70.675781 141.980469 70.625 141.957031 70.601562 C 141.671875 70.371094 141.332031 70.273438 140.972656 70.191406 Z M 140.972656 70.191406 " fill-opacity="1" fill-rule="nonzero"/></g><g clip-path="url(#id7)"><path fill="#000000" d="M 121.980469 41.074219 C 126.457031 41.074219 130.082031 44.699219 130.082031 49.175781 C 130.082031 53.648438 126.457031 57.277344 121.980469 57.277344 C 117.507812 57.277344 113.878906 53.648438 113.878906 49.175781 C 113.878906 44.699219 117.507812 41.074219 121.980469 41.074219 " fill-opacity="1" fill-rule="nonzero"/></g><path fill="#f7f7f7" d="M 124.113281 46.234375 C 124.148438 46.082031 124.183594 45.925781 124.21875 45.773438 C 124.265625 45.558594 123.9375 45.46875 123.890625 45.683594 C 123.855469 45.835938 123.820312 45.992188 123.785156 46.144531 C 123.738281 46.359375 124.066406 46.449219 124.113281 46.234375 " fill-opacity="1" fill-rule="nonzero"/><path fill="#f7f7f7" d="M 124.089844 49.324219 C 123.992188 49.015625 123.769531 48.753906 123.703125 48.441406 C 123.644531 48.171875 123.746094 47.878906 123.804688 47.617188 C 123.871094 47.3125 123.941406 47.007812 124.007812 46.707031 C 124.054688 46.492188 123.726562 46.402344 123.679688 46.617188 C 123.613281 46.910156 123.546875 47.203125 123.484375 47.496094 C 123.421875 47.773438 123.335938 48.054688 123.351562 48.34375 C 123.367188 48.667969 123.539062 48.902344 123.671875 49.1875 C 123.800781 49.457031 123.863281 49.761719 123.898438 50.058594 C 123.925781 50.300781 123.929688 50.542969 123.921875 50.789062 C 123.917969 50.839844 123.914062 50.890625 123.910156 50.945312 C 122.621094 50.945312 121.328125 50.945312 120.039062 50.945312 C 120.027344 50.808594 120.023438 50.671875 120.023438 50.535156 C 120.023438 50.140625 120.078125 49.75 120.203125 49.375 C 120.269531 49.164062 119.941406 49.074219 119.875 49.285156 C 119.675781 49.878906 119.636719 50.539062 119.71875 51.160156 C 119.730469 51.234375 119.816406 51.285156 119.882812 51.285156 C 121.277344 51.285156 122.671875 51.285156 124.066406 51.285156 C 124.132812 51.285156 124.21875 51.234375 124.230469 51.160156 C 124.273438 50.839844 124.273438 50.511719 124.25 50.1875 C 124.230469 49.898438 124.175781 49.605469 124.089844 49.324219 " fill-opacity="1" fill-rule="nonzero"/><path fill="#f7f7f7" d="M 123.382812 44.332031 C 123.179688 44.328125 122.976562 44.292969 122.773438 44.261719 C 122.777344 44.101562 122.78125 43.941406 122.761719 43.78125 C 122.738281 43.589844 122.644531 43.398438 122.480469 43.289062 C 122.34375 43.191406 122.203125 43.183594 122.042969 43.183594 C 121.910156 43.183594 121.777344 43.171875 121.652344 43.226562 C 121.453125 43.308594 121.332031 43.488281 121.273438 43.6875 C 121.226562 43.863281 121.238281 44.0625 121.246094 44.253906 C 121.097656 44.269531 120.949219 44.285156 120.800781 44.304688 C 120.542969 44.332031 120.292969 44.335938 120.054688 44.445312 C 119.785156 44.566406 119.542969 44.925781 119.609375 45.230469 C 119.632812 45.339844 119.660156 45.449219 119.683594 45.558594 C 119.796875 46.066406 119.910156 46.574219 120.023438 47.078125 C 120.09375 47.390625 120.152344 47.710938 120.234375 48.019531 C 120.304688 48.265625 120.25 48.542969 120.121094 48.761719 C 120.007812 48.949219 120.300781 49.121094 120.414062 48.933594 C 120.660156 48.523438 120.605469 48.113281 120.507812 47.679688 C 120.398438 47.1875 120.285156 46.695312 120.175781 46.203125 C 120.097656 45.851562 120.019531 45.496094 119.9375 45.144531 C 119.917969 45.046875 120.027344 44.890625 120.097656 44.824219 C 120.226562 44.699219 120.402344 44.691406 120.570312 44.671875 C 120.785156 44.644531 121.003906 44.621094 121.21875 44.597656 C 121.285156 44.589844 121.355469 44.582031 121.421875 44.574219 C 121.511719 44.5625 121.589844 44.503906 121.589844 44.402344 C 121.589844 44.238281 121.589844 44.074219 121.589844 43.90625 C 121.589844 43.78125 121.625 43.671875 121.714844 43.582031 C 121.789062 43.503906 121.914062 43.523438 122.011719 43.523438 C 122.101562 43.523438 122.191406 43.511719 122.277344 43.558594 C 122.394531 43.621094 122.429688 43.78125 122.429688 43.90625 C 122.429688 44.074219 122.429688 44.242188 122.429688 44.410156 C 122.429688 44.511719 122.507812 44.570312 122.601562 44.582031 C 122.832031 44.609375 123.066406 44.636719 123.300781 44.660156 C 123.636719 44.699219 123.992188 44.765625 124.003906 45.183594 C 124.011719 45.402344 124.351562 45.402344 124.34375 45.183594 C 124.328125 44.644531 123.894531 44.339844 123.382812 44.332031 " fill-opacity="1" fill-rule="nonzero"/><path fill="#f7f7f7" d="M 122.960938 53.921875 C 122.695312 53.886719 122.414062 53.90625 122.144531 53.910156 C 122.144531 53.164062 122.144531 52.417969 122.144531 51.671875 C 122.144531 51.453125 121.804688 51.453125 121.804688 51.671875 C 121.804688 52.421875 121.804688 53.167969 121.804688 53.914062 C 121.546875 53.910156 121.289062 53.90625 121.035156 53.914062 C 120.730469 53.929688 120.488281 54.152344 120.402344 54.433594 C 120.351562 54.605469 120.378906 54.816406 120.378906 54.992188 C 120.378906 55.210938 120.71875 55.210938 120.71875 54.992188 C 120.71875 54.699219 120.667969 54.253906 121.09375 54.253906 C 121.328125 54.253906 121.566406 54.253906 121.804688 54.253906 C 121.804688 54.492188 121.804688 54.726562 121.804688 54.964844 C 121.804688 55.183594 122.144531 55.183594 122.144531 54.964844 C 122.144531 54.726562 122.144531 54.492188 122.144531 54.253906 C 122.378906 54.253906 122.613281 54.253906 122.847656 54.253906 C 123.277344 54.253906 123.230469 54.695312 123.230469 54.992188 C 123.230469 55.210938 123.570312 55.210938 123.570312 54.992188 C 123.570312 54.828125 123.589844 54.640625 123.554688 54.476562 C 123.492188 54.1875 123.257812 53.960938 122.960938 53.921875 " fill-opacity="1" fill-rule="nonzero"/><g fill="#000000" fill-opacity="1"><g transform="translate(103.420475, 74.624032)"><g><path d="M 10.230469 -4.503906 C 10.140625 -4.546875 10.054688 -4.503906 10.011719 -4.441406 C 7.792969 -0.5 6.769531 0.109375 6.3125 -0.0664062 C 5.570312 -0.347656 6.070312 -2.199219 6.550781 -4.003906 C 6.703125 -4.527344 6.855469 -5.09375 6.964844 -5.636719 L 7.226562 -6.679688 C 7.945312 -9.640625 9.164062 -14.601562 7.441406 -15.453125 C 6.984375 -15.691406 6.464844 -15.667969 5.941406 -15.429688 L 5.941406 -15.410156 L 5.898438 -15.410156 C 4.875 -14.886719 3.960938 -13.515625 3.375 -12.058594 C 3.480469 -13.144531 3.613281 -14.320312 3.722656 -15.582031 C 3.765625 -15.953125 3.570312 -16.277344 3.265625 -16.476562 L 2.851562 -16.714844 C 2.765625 -16.757812 2.699219 -16.78125 2.613281 -16.78125 C 2.523438 -16.78125 2.460938 -16.757812 2.394531 -16.714844 C 2.242188 -16.648438 2.175781 -16.519531 2.15625 -16.367188 C 2.066406 -12.90625 1.175781 -4.808594 0.0234375 -1.9375 C -0.0234375 -1.804688 0 -1.675781 0.109375 -1.566406 C 0.175781 -1.5 0.28125 -1.457031 0.371094 -1.457031 C 0.414062 -1.457031 0.480469 -1.457031 0.523438 -1.480469 C 0.847656 -1.632812 1.132812 -1.785156 1.328125 -1.980469 C 1.5 -2.109375 1.609375 -2.308594 1.675781 -2.523438 C 1.828125 -3.089844 2.503906 -5.570312 3.113281 -10.097656 C 3.480469 -12.011719 4.65625 -14.429688 6.050781 -15.125 L 6.070312 -15.125 C 6.222656 -15.191406 6.332031 -15.210938 6.441406 -15.167969 C 6.617188 -15.105469 6.769531 -14.886719 6.921875 -14.539062 C 7.160156 -13.90625 6.921875 -11.359375 5.832031 -7.136719 L 5.765625 -6.941406 C 4.699219 -2.785156 4.375 -1.546875 4.789062 -0.457031 C 4.898438 -0.152344 5.136719 0.0664062 5.484375 0.175781 C 5.703125 0.261719 5.964844 0.304688 6.203125 0.304688 C 6.507812 0.304688 6.769531 0.261719 6.878906 0.175781 L 6.921875 0.175781 C 7.964844 -0.347656 9.226562 -2.394531 10.292969 -4.289062 C 10.335938 -4.351562 10.292969 -4.460938 10.230469 -4.503906 Z M 10.230469 -4.503906 "/></g></g></g><g fill="#000000" fill-opacity="1"><g transform="translate(113.366178, 74.624032)"><g><path d="M 8.160156 -4.441406 C 8.117188 -4.503906 8.007812 -4.546875 7.945312 -4.484375 C 7.921875 -4.484375 6.222656 -3.417969 4.636719 -3.785156 C 4.851562 -4.441406 4.941406 -5.113281 4.917969 -5.722656 C 4.851562 -6.832031 4.394531 -7.617188 3.613281 -7.898438 C 3.132812 -8.074219 2.65625 -8.050781 2.175781 -7.8125 C 1.261719 -7.335938 0.480469 -6.09375 0 -4.394531 C -0.414062 -2.917969 0.0859375 -1.851562 0.675781 -1.347656 C 1.023438 -1.066406 1.414062 -0.9375 1.828125 -0.9375 C 2.109375 -0.9375 2.371094 -1 2.632812 -1.132812 C 3.503906 -1.546875 4.15625 -2.460938 4.527344 -3.460938 C 4.789062 -3.417969 5.050781 -3.375 5.332031 -3.375 C 5.613281 -3.375 5.941406 -3.417969 6.269531 -3.480469 C 7.289062 -3.699219 8.074219 -4.199219 8.117188 -4.222656 C 8.183594 -4.265625 8.203125 -4.375 8.160156 -4.441406 Z M 2.960938 -1.71875 C 2.613281 -1.457031 2.242188 -1.4375 1.914062 -1.652344 C 1.4375 -1.980469 1.042969 -2.894531 1.457031 -4.441406 C 1.632812 -5.09375 1.894531 -5.660156 2.21875 -6.09375 C 2.242188 -5.679688 2.394531 -5.113281 2.9375 -4.484375 C 3.285156 -4.070312 3.679688 -3.765625 4.15625 -3.589844 C 4.179688 -3.570312 4.199219 -3.570312 4.222656 -3.570312 C 3.9375 -2.828125 3.503906 -2.15625 2.960938 -1.71875 Z M 4.332031 -3.875 C 4.308594 -3.875 4.289062 -3.875 4.265625 -3.894531 C 3.9375 -4.027344 3.679688 -4.308594 3.527344 -4.699219 C 3.175781 -5.59375 3.394531 -6.789062 3.527344 -7.160156 C 3.589844 -7.183594 3.632812 -7.183594 3.679688 -7.183594 C 3.984375 -7.226562 4.222656 -7.074219 4.351562 -6.769531 C 4.527344 -6.398438 4.59375 -5.984375 4.59375 -5.703125 C 4.636719 -5.136719 4.527344 -4.484375 4.332031 -3.875 Z M 4.332031 -3.875 "/></g></g></g><g fill="#000000" fill-opacity="1"><g transform="translate(121.048524, 74.624032)"><g><path d="M 5.550781 -4.484375 C 5.484375 -4.527344 5.375 -4.527344 5.332031 -4.460938 C 5.308594 -4.441406 4.59375 -3.527344 2.742188 -2.613281 C 2.503906 -3.394531 2.089844 -4.003906 1.71875 -4.570312 C 1.304688 -5.179688 0.957031 -5.703125 0.914062 -6.3125 C 0.871094 -7.269531 1.480469 -8.226562 2.089844 -8.554688 C 2.199219 -8.617188 2.414062 -8.707031 2.566406 -8.597656 C 2.65625 -8.53125 2.742188 -8.464844 2.785156 -8.378906 C 3.046875 -8.007812 3.113281 -7.421875 2.9375 -6.984375 C 2.894531 -6.898438 2.9375 -6.8125 3.003906 -6.769531 C 3.089844 -6.746094 3.175781 -6.769531 3.222656 -6.855469 C 3.460938 -7.378906 3.375 -8.097656 3.046875 -8.574219 C 2.980469 -8.683594 2.871094 -8.769531 2.785156 -8.859375 L 2.765625 -8.859375 L 2.765625 -8.878906 C 2.503906 -9.074219 2.175781 -9.164062 1.804688 -9.140625 C 1.152344 -9.097656 0.523438 -8.75 0.0664062 -8.160156 C -0.480469 -7.464844 -0.675781 -6.574219 -0.523438 -5.636719 C -0.371094 -4.875 0.0234375 -4.289062 0.433594 -3.722656 C 0.785156 -3.222656 1.152344 -2.675781 1.347656 -2.003906 C 0.175781 -1.546875 -0.609375 -0.71875 -0.761719 0.238281 C -0.847656 0.738281 -0.71875 1.195312 -0.433594 1.4375 C -0.304688 1.546875 -0.152344 1.609375 0.0429688 1.652344 C 0.21875 1.71875 0.414062 1.742188 0.609375 1.742188 C 1.042969 1.742188 1.523438 1.589844 1.914062 1.304688 C 2.414062 0.914062 3.003906 0.128906 2.9375 -1.457031 C 2.917969 -1.761719 2.894531 -2.023438 2.828125 -2.285156 C 4.789062 -3.265625 5.550781 -4.199219 5.570312 -4.265625 C 5.636719 -4.332031 5.613281 -4.417969 5.550781 -4.484375 Z M 0.675781 1.285156 C 0.347656 1.457031 -0.0234375 1.347656 -0.21875 1.195312 C -0.414062 1.023438 -0.5 0.675781 -0.433594 0.28125 C -0.390625 -0.0234375 -0.109375 -1.066406 1.414062 -1.675781 C 1.457031 -1.5 1.480469 -1.328125 1.480469 -1.132812 C 1.546875 0.585938 1.023438 1.109375 0.675781 1.285156 Z M 0.675781 1.285156 "/></g></g></g><g fill="#000000" fill-opacity="1"><g transform="translate(126.293411, 74.624032)"><g><path d="M 5.550781 -4.484375 C 5.484375 -4.527344 5.375 -4.527344 5.332031 -4.460938 C 5.308594 -4.441406 4.59375 -3.527344 2.742188 -2.613281 C 2.503906 -3.394531 2.089844 -4.003906 1.71875 -4.570312 C 1.304688 -5.179688 0.957031 -5.703125 0.914062 -6.3125 C 0.871094 -7.269531 1.480469 -8.226562 2.089844 -8.554688 C 2.199219 -8.617188 2.414062 -8.707031 2.566406 -8.597656 C 2.65625 -8.53125 2.742188 -8.464844 2.785156 -8.378906 C 3.046875 -8.007812 3.113281 -7.421875 2.9375 -6.984375 C 2.894531 -6.898438 2.9375 -6.8125 3.003906 -6.769531 C 3.089844 -6.746094 3.175781 -6.769531 3.222656 -6.855469 C 3.460938 -7.378906 3.375 -8.097656 3.046875 -8.574219 C 2.980469 -8.683594 2.871094 -8.769531 2.785156 -8.859375 L 2.765625 -8.859375 L 2.765625 -8.878906 C 2.503906 -9.074219 2.175781 -9.164062 1.804688 -9.140625 C 1.152344 -9.097656 0.523438 -8.75 0.0664062 -8.160156 C -0.480469 -7.464844 -0.675781 -6.574219 -0.523438 -5.636719 C -0.371094 -4.875 0.0234375 -4.289062 0.433594 -3.722656 C 0.785156 -3.222656 1.152344 -2.675781 1.347656 -2.003906 C 0.175781 -1.546875 -0.609375 -0.71875 -0.761719 0.238281 C -0.847656 0.738281 -0.71875 1.195312 -0.433594 1.4375 C -0.304688 1.546875 -0.152344 1.609375 0.0429688 1.652344 C 0.21875 1.71875 0.414062 1.742188 0.609375 1.742188 C 1.042969 1.742188 1.523438 1.589844 1.914062 1.304688 C 2.414062 0.914062 3.003906 0.128906 2.9375 -1.457031 C 2.917969 -1.761719 2.894531 -2.023438 2.828125 -2.285156 C 4.789062 -3.265625 5.550781 -4.199219 5.570312 -4.265625 C 5.636719 -4.332031 5.613281 -4.417969 5.550781 -4.484375 Z M 0.675781 1.285156 C 0.347656 1.457031 -0.0234375 1.347656 -0.21875 1.195312 C -0.414062 1.023438 -0.5 0.675781 -0.433594 0.28125 C -0.390625 -0.0234375 -0.109375 -1.066406 1.414062 -1.675781 C 1.457031 -1.5 1.480469 -1.328125 1.480469 -1.132812 C 1.546875 0.585938 1.023438 1.109375 0.675781 1.285156 Z M 0.675781 1.285156 "/></g></g></g><g fill="#000000" fill-opacity="1"><g transform="translate(131.538298, 74.624032)"><g><path d="M 8.160156 -4.441406 C 8.117188 -4.503906 8.007812 -4.546875 7.945312 -4.484375 C 7.921875 -4.484375 6.222656 -3.417969 4.636719 -3.785156 C 4.851562 -4.441406 4.941406 -5.113281 4.917969 -5.722656 C 4.851562 -6.832031 4.394531 -7.617188 3.613281 -7.898438 C 3.132812 -8.074219 2.65625 -8.050781 2.175781 -7.8125 C 1.261719 -7.335938 0.480469 -6.09375 0 -4.394531 C -0.414062 -2.917969 0.0859375 -1.851562 0.675781 -1.347656 C 1.023438 -1.066406 1.414062 -0.9375 1.828125 -0.9375 C 2.109375 -0.9375 2.371094 -1 2.632812 -1.132812 C 3.503906 -1.546875 4.15625 -2.460938 4.527344 -3.460938 C 4.789062 -3.417969 5.050781 -3.375 5.332031 -3.375 C 5.613281 -3.375 5.941406 -3.417969 6.269531 -3.480469 C 7.289062 -3.699219 8.074219 -4.199219 8.117188 -4.222656 C 8.183594 -4.265625 8.203125 -4.375 8.160156 -4.441406 Z M 2.960938 -1.71875 C 2.613281 -1.457031 2.242188 -1.4375 1.914062 -1.652344 C 1.4375 -1.980469 1.042969 -2.894531 1.457031 -4.441406 C 1.632812 -5.09375 1.894531 -5.660156 2.21875 -6.09375 C 2.242188 -5.679688 2.394531 -5.113281 2.9375 -4.484375 C 3.285156 -4.070312 3.679688 -3.765625 4.15625 -3.589844 C 4.179688 -3.570312 4.199219 -3.570312 4.222656 -3.570312 C 3.9375 -2.828125 3.503906 -2.15625 2.960938 -1.71875 Z M 4.332031 -3.875 C 4.308594 -3.875 4.289062 -3.875 4.265625 -3.894531 C 3.9375 -4.027344 3.679688 -4.308594 3.527344 -4.699219 C 3.175781 -5.59375 3.394531 -6.789062 3.527344 -7.160156 C 3.589844 -7.183594 3.632812 -7.183594 3.679688 -7.183594 C 3.984375 -7.226562 4.222656 -7.074219 4.351562 -6.769531 C 4.527344 -6.398438 4.59375 -5.984375 4.59375 -5.703125 C 4.636719 -5.136719 4.527344 -4.484375 4.332031 -3.875 Z M 4.332031 -3.875 "/></g></g></g><g fill="#000000" fill-opacity="1"><g transform="translate(93.293999, 89.257245)"><g><path d="M 5.125 0.167969 C 5.652344 0.167969 6.070312 0.113281 6.515625 0 L 6.515625 -1.019531 C 6.070312 -0.910156 5.652344 -0.851562 5.125 -0.851562 C 3.410156 -0.851562 1.792969 -2.097656 1.792969 -5.046875 C 1.792969 -8 3.410156 -9.253906 5.125 -9.253906 C 5.652344 -9.253906 6.070312 -9.199219 6.515625 -9.085938 L 6.515625 -10.097656 C 6.070312 -10.207031 5.664062 -10.265625 5.136719 -10.265625 C 2.558594 -10.265625 0.671875 -8.300781 0.671875 -5.046875 C 0.671875 -1.792969 2.546875 0.167969 5.125 0.167969 Z M 5.125 0.167969 "/></g></g></g><g fill="#000000" fill-opacity="1"><g transform="translate(104.141326, 89.257245)"><g><path d="M 2.199219 0.167969 C 3.980469 0.167969 4.945312 -1.234375 5.058594 -1.660156 L 5.058594 0 L 6.179688 0 L 6.179688 -3.914062 C 6.179688 -5.574219 4.957031 -6.898438 2.972656 -6.898438 C 2.054688 -6.898438 1.480469 -6.785156 0.832031 -6.460938 L 0.832031 -5.417969 C 1.390625 -5.722656 1.875 -5.890625 2.757812 -5.890625 C 4.183594 -5.890625 5.046875 -5.058594 5.058594 -3.824219 C 4.542969 -3.980469 3.980469 -4.070312 3.421875 -4.070312 C 1.839844 -4.070312 0.335938 -3.367188 0.335938 -1.605469 C 0.335938 -0.671875 1.042969 0.167969 2.199219 0.167969 Z M 1.457031 -1.726562 C 1.457031 -2.601562 2.578125 -3.050781 3.511719 -3.050781 C 3.949219 -3.050781 4.699219 -2.996094 5.058594 -2.828125 L 5.058594 -2.332031 C 4.824219 -1.480469 3.632812 -0.820312 2.46875 -0.820312 C 1.941406 -0.820312 1.457031 -1.132812 1.457031 -1.726562 Z M 1.457031 -1.726562 "/></g></g></g><g fill="#000000" fill-opacity="1"><g transform="translate(114.988652, 89.257245)"><g><path d="M 3.175781 0.167969 C 5.070312 0.167969 6.40625 -1.078125 6.40625 -3.523438 C 6.40625 -5.125 5.5625 -6.898438 3.714844 -6.898438 C 2.828125 -6.898438 2.019531 -6.238281 1.792969 -5.429688 L 1.792969 -10.097656 L 0.671875 -10.097656 L 0.671875 -2.121094 C 0.671875 -1.078125 1.558594 0.167969 3.175781 0.167969 Z M 1.792969 -4.476562 C 1.792969 -5.304688 2.390625 -5.945312 3.207031 -5.945312 C 4.6875 -5.945312 5.261719 -4.644531 5.261719 -3.488281 C 5.261719 -2.152344 4.667969 -0.839844 3.242188 -0.839844 C 2.445312 -0.839844 1.792969 -1.367188 1.792969 -2.355469 Z M 1.792969 -4.476562 "/></g></g></g><g fill="#000000" fill-opacity="1"><g transform="translate(126.060329, 89.257245)"><g><path d="M 0.671875 0 L 1.792969 0 L 1.792969 -6.730469 L 0.671875 -6.730469 Z M 0.582031 -8.414062 C 0.582031 -8.054688 0.875 -7.761719 1.222656 -7.761719 C 1.582031 -7.761719 1.875 -8.054688 1.875 -8.414062 C 1.875 -8.761719 1.582031 -9.050781 1.222656 -9.050781 C 0.875 -9.050781 0.582031 -8.761719 0.582031 -8.414062 Z M 0.582031 -8.414062 "/></g></g></g><g fill="#000000" fill-opacity="1"><g transform="translate(132.510392, 89.257245)"><g><path d="M 3.34375 0.179688 C 4.261719 0.179688 5.015625 -0.4375 5.292969 -1.265625 L 5.292969 0.0117188 L 6.417969 0.0117188 L 6.417969 -10.097656 L 5.292969 -10.097656 L 5.292969 -6.28125 C 4.957031 -6.664062 4.453125 -6.898438 3.8125 -6.898438 C 1.582031 -6.898438 0.671875 -4.992188 0.671875 -3.164062 C 0.671875 -1.378906 1.617188 0.179688 3.34375 0.179688 Z M 3.871094 -5.878906 C 4.65625 -5.878906 5.113281 -5.417969 5.292969 -4.835938 L 5.292969 -2.78125 C 5.292969 -1.515625 4.464844 -0.820312 3.511719 -0.820312 C 2.390625 -0.820312 1.804688 -1.964844 1.804688 -3.164062 C 1.804688 -4.488281 2.332031 -5.878906 3.871094 -5.878906 Z M 3.871094 -5.878906 "/></g></g></g><g fill="#000000" fill-opacity="1"><g transform="translate(143.593289, 89.257245)"><g><path d="M 0.671875 -3.367188 C 0.671875 -1.289062 1.875 0.167969 3.9375 0.167969 C 5.988281 0.167969 6.605469 -0.839844 6.605469 -0.839844 L 6.136719 -1.683594 C 5.6875 -1.15625 4.925781 -0.851562 4.21875 -0.851562 C 3.074219 -0.851562 2.019531 -1.46875 1.839844 -2.894531 C 2.253906 -2.511719 3.007812 -2.175781 3.835938 -2.175781 C 5.507812 -2.175781 6.472656 -3.355469 6.472656 -4.589844 C 6.472656 -6.078125 5.238281 -6.898438 3.902344 -6.898438 C 2.355469 -6.898438 0.671875 -5.8125 0.671875 -3.367188 Z M 1.875 -4.039062 C 2.121094 -5.304688 3.085938 -5.890625 3.9375 -5.890625 C 4.667969 -5.890625 5.351562 -5.40625 5.351562 -4.554688 C 5.351562 -3.871094 4.8125 -3.175781 3.746094 -3.175781 C 3.015625 -3.175781 2.265625 -3.5 1.875 -4.039062 Z M 1.875 -4.039062 "/></g></g></g><g clip-path="url(#id8)"><path fill="#000000" d="M 85.644531 68.171875 C 85.917969 68.269531 86.167969 68.367188 86.425781 68.453125 C 86.683594 68.539062 86.890625 68.703125 87.089844 68.878906 C 87.230469 69.003906 87.273438 69.164062 87.210938 69.347656 C 87.167969 69.464844 87.121094 69.589844 87.0625 69.699219 C 86.839844 70.105469 86.46875 70.238281 86.027344 70.117188 C 85.453125 69.960938 85.277344 69.734375 85.179688 69.027344 C 85.15625 68.878906 85.175781 68.726562 85.175781 68.550781 C 85.074219 68.5625 84.972656 68.5625 84.875 68.589844 C 84.492188 68.683594 84.125 68.8125 83.820312 69.082031 C 83.714844 69.175781 83.5625 69.222656 83.429688 69.277344 C 83.339844 69.3125 83.3125 69.273438 83.34375 69.183594 C 83.421875 68.945312 83.574219 68.738281 83.78125 68.59375 C 84.222656 68.285156 84.695312 68.070312 85.25 68.097656 C 85.28125 68.101562 85.332031 68.066406 85.34375 68.039062 C 85.632812 67.34375 86.074219 66.765625 86.589844 66.21875 C 87.175781 65.597656 87.882812 65.101562 88.664062 64.753906 C 89.34375 64.453125 90.03125 64.128906 90.761719 63.972656 C 91.878906 63.730469 93.011719 63.714844 94.148438 63.90625 C 95.328125 64.105469 96.488281 64.398438 97.652344 64.675781 C 98.421875 64.859375 99.195312 65.050781 99.988281 65.097656 C 100.597656 65.132812 101.210938 65.125 101.820312 65.105469 C 102.308594 65.089844 102.792969 65.046875 103.277344 64.984375 C 103.855469 64.902344 104.390625 64.664062 104.925781 64.441406 C 105.621094 64.160156 106.1875 63.714844 106.601562 63.078125 C 106.644531 63.011719 106.695312 62.945312 106.785156 62.984375 C 106.875 63.019531 106.863281 63.109375 106.847656 63.179688 C 106.796875 63.398438 106.691406 63.597656 106.539062 63.757812 C 106.109375 64.210938 105.640625 64.601562 105.054688 64.832031 C 104.484375 65.0625 103.921875 65.320312 103.304688 65.410156 C 102.90625 65.46875 102.503906 65.511719 102.101562 65.53125 C 101.503906 65.5625 100.910156 65.585938 100.3125 65.574219 C 99.433594 65.558594 98.578125 65.359375 97.722656 65.164062 C 96.769531 64.953125 95.820312 64.707031 94.863281 64.503906 C 94.078125 64.335938 93.285156 64.203125 92.472656 64.226562 C 91.902344 64.246094 91.316406 64.230469 90.769531 64.402344 C 89.652344 64.761719 88.511719 65.082031 87.554688 65.804688 C 86.796875 66.375 86.148438 67.050781 85.742188 67.925781 C 85.703125 68.003906 85.675781 68.089844 85.644531 68.171875 Z M 85.535156 68.621094 C 85.472656 68.882812 85.519531 69.113281 85.59375 69.34375 C 85.691406 69.644531 85.976562 69.828125 86.308594 69.8125 C 86.597656 69.800781 86.765625 69.640625 86.847656 69.300781 C 86.847656 69.296875 86.851562 69.292969 86.851562 69.289062 C 86.832031 69.242188 86.828125 69.175781 86.792969 69.148438 C 86.433594 68.851562 85.996094 68.722656 85.535156 68.621094 Z M 85.535156 68.621094 " fill-opacity="1" fill-rule="nonzero"/></g><g clip-path="url(#id9)"><path fill="#000000" d="M 141.054688 69.84375 C 141.269531 69.921875 141.46875 69.996094 141.667969 70.0625 C 141.871094 70.128906 142.03125 70.257812 142.183594 70.390625 C 142.292969 70.488281 142.332031 70.617188 142.28125 70.757812 C 142.246094 70.851562 142.210938 70.945312 142.164062 71.03125 C 141.988281 71.347656 141.703125 71.449219 141.355469 71.355469 C 140.910156 71.234375 140.769531 71.058594 140.691406 70.507812 C 140.675781 70.394531 140.691406 70.273438 140.691406 70.136719 C 140.613281 70.148438 140.53125 70.148438 140.457031 70.167969 C 140.15625 70.238281 139.871094 70.339844 139.632812 70.550781 C 139.550781 70.625 139.433594 70.660156 139.328125 70.703125 C 139.257812 70.730469 139.234375 70.703125 139.261719 70.628906 C 139.320312 70.445312 139.441406 70.28125 139.601562 70.171875 C 139.945312 69.933594 140.316406 69.765625 140.75 69.785156 C 140.773438 69.785156 140.8125 69.761719 140.820312 69.738281 C 141.046875 69.199219 141.394531 68.75 141.796875 68.324219 C 142.253906 67.84375 142.804688 67.453125 143.417969 67.1875 C 143.945312 66.949219 144.484375 66.699219 145.050781 66.578125 C 145.925781 66.390625 146.8125 66.378906 147.699219 66.527344 C 148.621094 66.679688 149.527344 66.90625 150.433594 67.125 C 151.039062 67.265625 151.640625 67.417969 152.257812 67.453125 C 152.734375 67.480469 153.214844 67.472656 153.691406 67.457031 C 154.070312 67.445312 154.453125 67.414062 154.828125 67.363281 C 155.28125 67.300781 155.699219 67.113281 156.117188 66.941406 C 156.660156 66.722656 157.105469 66.375 157.425781 65.882812 C 157.460938 65.832031 157.5 65.777344 157.570312 65.808594 C 157.636719 65.835938 157.632812 65.90625 157.617188 65.960938 C 157.578125 66.128906 157.496094 66.285156 157.378906 66.410156 C 157.042969 66.761719 156.675781 67.066406 156.21875 67.246094 C 155.769531 67.425781 155.332031 67.625 154.851562 67.695312 C 154.539062 67.742188 154.226562 67.773438 153.910156 67.789062 C 153.445312 67.8125 152.980469 67.832031 152.515625 67.824219 C 151.828125 67.8125 151.160156 67.65625 150.492188 67.503906 C 149.746094 67.339844 149.003906 67.148438 148.257812 66.988281 C 147.644531 66.859375 147.023438 66.753906 146.390625 66.773438 C 145.945312 66.789062 145.484375 66.777344 145.0625 66.914062 C 144.1875 67.191406 143.296875 67.441406 142.550781 68.003906 C 141.957031 68.445312 141.449219 68.972656 141.132812 69.652344 C 141.101562 69.714844 141.082031 69.777344 141.054688 69.84375 Z M 140.972656 70.191406 C 140.921875 70.394531 140.960938 70.574219 141.019531 70.753906 C 141.09375 70.988281 141.316406 71.132812 141.574219 71.121094 C 141.800781 71.109375 141.933594 70.984375 141.996094 70.71875 C 141.996094 70.71875 142 70.714844 142 70.710938 C 141.984375 70.675781 141.980469 70.625 141.957031 70.601562 C 141.671875 70.371094 141.332031 70.273438 140.972656 70.191406 Z M 140.972656 70.191406 " fill-opacity="1" fill-rule="nonzero"/></g><g clip-path="url(#id10)"><path fill="#000000" d="M 121.980469 41.074219 C 126.457031 41.074219 130.082031 44.699219 130.082031 49.175781 C 130.082031 53.648438 126.457031 57.277344 121.980469 57.277344 C 117.507812 57.277344 113.878906 53.648438 113.878906 49.175781 C 113.878906 44.699219 117.507812 41.074219 121.980469 41.074219 " fill-opacity="1" fill-rule="nonzero"/></g><path fill="#f7f7f7" d="M 124.113281 46.234375 C 124.148438 46.082031 124.183594 45.925781 124.21875 45.773438 C 124.265625 45.558594 123.9375 45.46875 123.890625 45.683594 C 123.855469 45.835938 123.820312 45.992188 123.785156 46.144531 C 123.738281 46.359375 124.066406 46.449219 124.113281 46.234375 " fill-opacity="1" fill-rule="nonzero"/><path fill="#f7f7f7" d="M 124.089844 49.324219 C 123.992188 49.015625 123.769531 48.753906 123.703125 48.441406 C 123.644531 48.171875 123.746094 47.878906 123.804688 47.617188 C 123.871094 47.3125 123.941406 47.007812 124.007812 46.707031 C 124.054688 46.492188 123.726562 46.402344 123.679688 46.617188 C 123.613281 46.910156 123.546875 47.203125 123.484375 47.496094 C 123.421875 47.773438 123.335938 48.054688 123.351562 48.34375 C 123.367188 48.667969 123.539062 48.902344 123.671875 49.1875 C 123.800781 49.457031 123.863281 49.761719 123.898438 50.058594 C 123.925781 50.300781 123.929688 50.542969 123.921875 50.789062 C 123.917969 50.839844 123.914062 50.890625 123.910156 50.945312 C 122.621094 50.945312 121.328125 50.945312 120.039062 50.945312 C 120.027344 50.808594 120.023438 50.671875 120.023438 50.535156 C 120.023438 50.140625 120.078125 49.75 120.203125 49.375 C 120.269531 49.164062 119.941406 49.074219 119.875 49.285156 C 119.675781 49.878906 119.636719 50.539062 119.71875 51.160156 C 119.730469 51.234375 119.816406 51.285156 119.882812 51.285156 C 121.277344 51.285156 122.671875 51.285156 124.066406 51.285156 C 124.132812 51.285156 124.21875 51.234375 124.230469 51.160156 C 124.273438 50.839844 124.273438 50.511719 124.25 50.1875 C 124.230469 49.898438 124.175781 49.605469 124.089844 49.324219 " fill-opacity="1" fill-rule="nonzero"/><path fill="#f7f7f7" d="M 123.382812 44.332031 C 123.179688 44.328125 122.976562 44.292969 122.773438 44.261719 C 122.777344 44.101562 122.78125 43.941406 122.761719 43.78125 C 122.738281 43.589844 122.644531 43.398438 122.480469 43.289062 C 122.34375 43.191406 122.203125 43.183594 122.042969 43.183594 C 121.910156 43.183594 121.777344 43.171875 121.652344 43.226562 C 121.453125 43.308594 121.332031 43.488281 121.273438 43.6875 C 121.226562 43.863281 121.238281 44.0625 121.246094 44.253906 C 121.097656 44.269531 120.949219 44.285156 120.800781 44.304688 C 120.542969 44.332031 120.292969 44.335938 120.054688 44.445312 C 119.785156 44.566406 119.542969 44.925781 119.609375 45.230469 C 119.632812 45.339844 119.660156 45.449219 119.683594 45.558594 C 119.796875 46.066406 119.910156 46.574219 120.023438 47.078125 C 120.09375 47.390625 120.152344 47.710938 120.234375 48.019531 C 120.304688 48.265625 120.25 48.542969 120.121094 48.761719 C 120.007812 48.949219 120.300781 49.121094 120.414062 48.933594 C 120.660156 48.523438 120.605469 48.113281 120.507812 47.679688 C 120.398438 47.1875 120.285156 46.695312 120.175781 46.203125 C 120.097656 45.851562 120.019531 45.496094 119.9375 45.144531 C 119.917969 45.046875 120.027344 44.890625 120.097656 44.824219 C 120.226562 44.699219 120.402344 44.691406 120.570312 44.671875 C 120.785156 44.644531 121.003906 44.621094 121.21875 44.597656 C 121.285156 44.589844 121.355469 44.582031 121.421875 44.574219 C 121.511719 44.5625 121.589844 44.503906 121.589844 44.402344 C 121.589844 44.238281 121.589844 44.074219 121.589844 43.90625 C 121.589844 43.78125 121.625 43.671875 121.714844 43.582031 C 121.789062 43.503906 121.914062 43.523438 122.011719 43.523438 C 122.101562 43.523438 122.191406 43.511719 122.277344 43.558594 C 122.394531 43.621094 122.429688 43.78125 122.429688 43.90625 C 122.429688 44.074219 122.429688 44.242188 122.429688 44.410156 C 122.429688 44.511719 122.507812 44.570312 122.601562 44.582031 C 122.832031 44.609375 123.066406 44.636719 123.300781 44.660156 C 123.636719 44.699219 123.992188 44.765625 124.003906 45.183594 C 124.011719 45.402344 124.351562 45.402344 124.34375 45.183594 C 124.328125 44.644531 123.894531 44.339844 123.382812 44.332031 " fill-opacity="1" fill-rule="nonzero"/><path fill="#f7f7f7" d="M 122.960938 53.921875 C 122.695312 53.886719 122.414062 53.90625 122.144531 53.910156 C 122.144531 53.164062 122.144531 52.417969 122.144531 51.671875 C 122.144531 51.453125 121.804688 51.453125 121.804688 51.671875 C 121.804688 52.421875 121.804688 53.167969 121.804688 53.914062 C 121.546875 53.910156 121.289062 53.90625 121.035156 53.914062 C 120.730469 53.929688 120.488281 54.152344 120.402344 54.433594 C 120.351562 54.605469 120.378906 54.816406 120.378906 54.992188 C 120.378906 55.210938 120.71875 55.210938 120.71875 54.992188 C 120.71875 54.699219 120.667969 54.253906 121.09375 54.253906 C 121.328125 54.253906 121.566406 54.253906 121.804688 54.253906 C 121.804688 54.492188 121.804688 54.726562 121.804688 54.964844 C 121.804688 55.183594 122.144531 55.183594 122.144531 54.964844 C 122.144531 54.726562 122.144531 54.492188 122.144531 54.253906 C 122.378906 54.253906 122.613281 54.253906 122.847656 54.253906 C 123.277344 54.253906 123.230469 54.695312 123.230469 54.992188 C 123.230469 55.210938 123.570312 55.210938 123.570312 54.992188 C 123.570312 54.828125 123.589844 54.640625 123.554688 54.476562 C 123.492188 54.1875 123.257812 53.960938 122.960938 53.921875 " fill-opacity="1" fill-rule="nonzero"/><g fill="#000000" fill-opacity="1"><g transform="translate(103.420475, 74.624032)"><g><path d="M 10.230469 -4.503906 C 10.140625 -4.546875 10.054688 -4.503906 10.011719 -4.441406 C 7.792969 -0.5 6.769531 0.109375 6.3125 -0.0664062 C 5.570312 -0.347656 6.070312 -2.199219 6.550781 -4.003906 C 6.703125 -4.527344 6.855469 -5.09375 6.964844 -5.636719 L 7.226562 -6.679688 C 7.945312 -9.640625 9.164062 -14.601562 7.441406 -15.453125 C 6.984375 -15.691406 6.464844 -15.667969 5.941406 -15.429688 L 5.941406 -15.410156 L 5.898438 -15.410156 C 4.875 -14.886719 3.960938 -13.515625 3.375 -12.058594 C 3.480469 -13.144531 3.613281 -14.320312 3.722656 -15.582031 C 3.765625 -15.953125 3.570312 -16.277344 3.265625 -16.476562 L 2.851562 -16.714844 C 2.765625 -16.757812 2.699219 -16.78125 2.613281 -16.78125 C 2.523438 -16.78125 2.460938 -16.757812 2.394531 -16.714844 C 2.242188 -16.648438 2.175781 -16.519531 2.15625 -16.367188 C 2.066406 -12.90625 1.175781 -4.808594 0.0234375 -1.9375 C -0.0234375 -1.804688 0 -1.675781 0.109375 -1.566406 C 0.175781 -1.5 0.28125 -1.457031 0.371094 -1.457031 C 0.414062 -1.457031 0.480469 -1.457031 0.523438 -1.480469 C 0.847656 -1.632812 1.132812 -1.785156 1.328125 -1.980469 C 1.5 -2.109375 1.609375 -2.308594 1.675781 -2.523438 C 1.828125 -3.089844 2.503906 -5.570312 3.113281 -10.097656 C 3.480469 -12.011719 4.65625 -14.429688 6.050781 -15.125 L 6.070312 -15.125 C 6.222656 -15.191406 6.332031 -15.210938 6.441406 -15.167969 C 6.617188 -15.105469 6.769531 -14.886719 6.921875 -14.539062 C 7.160156 -13.90625 6.921875 -11.359375 5.832031 -7.136719 L 5.765625 -6.941406 C 4.699219 -2.785156 4.375 -1.546875 4.789062 -0.457031 C 4.898438 -0.152344 5.136719 0.0664062 5.484375 0.175781 C 5.703125 0.261719 5.964844 0.304688 6.203125 0.304688 C 6.507812 0.304688 6.769531 0.261719 6.878906 0.175781 L 6.921875 0.175781 C 7.964844 -0.347656 9.226562 -2.394531 10.292969 -4.289062 C 10.335938 -4.351562 10.292969 -4.460938 10.230469 -4.503906 Z M 10.230469 -4.503906 "/></g></g></g><g fill="#000000" fill-opacity="1"><g transform="translate(113.366178, 74.624032)"><g><path d="M 8.160156 -4.441406 C 8.117188 -4.503906 8.007812 -4.546875 7.945312 -4.484375 C 7.921875 -4.484375 6.222656 -3.417969 4.636719 -3.785156 C 4.851562 -4.441406 4.941406 -5.113281 4.917969 -5.722656 C 4.851562 -6.832031 4.394531 -7.617188 3.613281 -7.898438 C 3.132812 -8.074219 2.65625 -8.050781 2.175781 -7.8125 C 1.261719 -7.335938 0.480469 -6.09375 0 -4.394531 C -0.414062 -2.917969 0.0859375 -1.851562 0.675781 -1.347656 C 1.023438 -1.066406 1.414062 -0.9375 1.828125 -0.9375 C 2.109375 -0.9375 2.371094 -1 2.632812 -1.132812 C 3.503906 -1.546875 4.15625 -2.460938 4.527344 -3.460938 C 4.789062 -3.417969 5.050781 -3.375 5.332031 -3.375 C 5.613281 -3.375 5.941406 -3.417969 6.269531 -3.480469 C 7.289062 -3.699219 8.074219 -4.199219 8.117188 -4.222656 C 8.183594 -4.265625 8.203125 -4.375 8.160156 -4.441406 Z M 2.960938 -1.71875 C 2.613281 -1.457031 2.242188 -1.4375 1.914062 -1.652344 C 1.4375 -1.980469 1.042969 -2.894531 1.457031 -4.441406 C 1.632812 -5.09375 1.894531 -5.660156 2.21875 -6.09375 C 2.242188 -5.679688 2.394531 -5.113281 2.9375 -4.484375 C 3.285156 -4.070312 3.679688 -3.765625 4.15625 -3.589844 C 4.179688 -3.570312 4.199219 -3.570312 4.222656 -3.570312 C 3.9375 -2.828125 3.503906 -2.15625 2.960938 -1.71875 Z M 4.332031 -3.875 C 4.308594 -3.875 4.289062 -3.875 4.265625 -3.894531 C 3.9375 -4.027344 3.679688 -4.308594 3.527344 -4.699219 C 3.175781 -5.59375 3.394531 -6.789062 3.527344 -7.160156 C 3.589844 -7.183594 3.632812 -7.183594 3.679688 -7.183594 C 3.984375 -7.226562 4.222656 -7.074219 4.351562 -6.769531 C 4.527344 -6.398438 4.59375 -5.984375 4.59375 -5.703125 C 4.636719 -5.136719 4.527344 -4.484375 4.332031 -3.875 Z M 4.332031 -3.875 "/></g></g></g><g fill="#000000" fill-opacity="1"><g transform="translate(121.048524, 74.624032)"><g><path d="M 5.550781 -4.484375 C 5.484375 -4.527344 5.375 -4.527344 5.332031 -4.460938 C 5.308594 -4.441406 4.59375 -3.527344 2.742188 -2.613281 C 2.503906 -3.394531 2.089844 -4.003906 1.71875 -4.570312 C 1.304688 -5.179688 0.957031 -5.703125 0.914062 -6.3125 C 0.871094 -7.269531 1.480469 -8.226562 2.089844 -8.554688 C 2.199219 -8.617188 2.414062 -8.707031 2.566406 -8.597656 C 2.65625 -8.53125 2.742188 -8.464844 2.785156 -8.378906 C 3.046875 -8.007812 3.113281 -7.421875 2.9375 -6.984375 C 2.894531 -6.898438 2.9375 -6.8125 3.003906 -6.769531 C 3.089844 -6.746094 3.175781 -6.769531 3.222656 -6.855469 C 3.460938 -7.378906 3.375 -8.097656 3.046875 -8.574219 C 2.980469 -8.683594 2.871094 -8.769531 2.785156 -8.859375 L 2.765625 -8.859375 L 2.765625 -8.878906 C 2.503906 -9.074219 2.175781 -9.164062 1.804688 -9.140625 C 1.152344 -9.097656 0.523438 -8.75 0.0664062 -8.160156 C -0.480469 -7.464844 -0.675781 -6.574219 -0.523438 -5.636719 C -0.371094 -4.875 0.0234375 -4.289062 0.433594 -3.722656 C 0.785156 -3.222656 1.152344 -2.675781 1.347656 -2.003906 C 0.175781 -1.546875 -0.609375 -0.71875 -0.761719 0.238281 C -0.847656 0.738281 -0.71875 1.195312 -0.433594 1.4375 C -0.304688 1.546875 -0.152344 1.609375 0.0429688 1.652344 C 0.21875 1.71875 0.414062 1.742188 0.609375 1.742188 C 1.042969 1.742188 1.523438 1.589844 1.914062 1.304688 C 2.414062 0.914062 3.003906 0.128906 2.9375 -1.457031 C 2.917969 -1.761719 2.894531 -2.023438 2.828125 -2.285156 C 4.789062 -3.265625 5.550781 -4.199219 5.570312 -4.265625 C 5.636719 -4.332031 5.613281 -4.417969 5.550781 -4.484375 Z M 0.675781 1.285156 C 0.347656 1.457031 -0.0234375 1.347656 -0.21875 1.195312 C -0.414062 1.023438 -0.5 0.675781 -0.433594 0.28125 C -0.390625 -0.0234375 -0.109375 -1.066406 1.414062 -1.675781 C 1.457031 -1.5 1.480469 -1.328125 1.480469 -1.132812 C 1.546875 0.585938 1.023438 1.109375 0.675781 1.285156 Z M 0.675781 1.285156 "/></g></g></g><g fill="#000000" fill-opacity="1"><g transform="translate(126.293411, 74.624032)"><g><path d="M 5.550781 -4.484375 C 5.484375 -4.527344 5.375 -4.527344 5.332031 -4.460938 C 5.308594 -4.441406 4.59375 -3.527344 2.742188 -2.613281 C 2.503906 -3.394531 2.089844 -4.003906 1.71875 -4.570312 C 1.304688 -5.179688 0.957031 -5.703125 0.914062 -6.3125 C 0.871094 -7.269531 1.480469 -8.226562 2.089844 -8.554688 C 2.199219 -8.617188 2.414062 -8.707031 2.566406 -8.597656 C 2.65625 -8.53125 2.742188 -8.464844 2.785156 -8.378906 C 3.046875 -8.007812 3.113281 -7.421875 2.9375 -6.984375 C 2.894531 -6.898438 2.9375 -6.8125 3.003906 -6.769531 C 3.089844 -6.746094 3.175781 -6.769531 3.222656 -6.855469 C 3.460938 -7.378906 3.375 -8.097656 3.046875 -8.574219 C 2.980469 -8.683594 2.871094 -8.769531 2.785156 -8.859375 L 2.765625 -8.859375 L 2.765625 -8.878906 C 2.503906 -9.074219 2.175781 -9.164062 1.804688 -9.140625 C 1.152344 -9.097656 0.523438 -8.75 0.0664062 -8.160156 C -0.480469 -7.464844 -0.675781 -6.574219 -0.523438 -5.636719 C -0.371094 -4.875 0.0234375 -4.289062 0.433594 -3.722656 C 0.785156 -3.222656 1.152344 -2.675781 1.347656 -2.003906 C 0.175781 -1.546875 -0.609375 -0.71875 -0.761719 0.238281 C -0.847656 0.738281 -0.71875 1.195312 -0.433594 1.4375 C -0.304688 1.546875 -0.152344 1.609375 0.0429688 1.652344 C 0.21875 1.71875 0.414062 1.742188 0.609375 1.742188 C 1.042969 1.742188 1.523438 1.589844 1.914062 1.304688 C 2.414062 0.914062 3.003906 0.128906 2.9375 -1.457031 C 2.917969 -1.761719 2.894531 -2.023438 2.828125 -2.285156 C 4.789062 -3.265625 5.550781 -4.199219 5.570312 -4.265625 C 5.636719 -4.332031 5.613281 -4.417969 5.550781 -4.484375 Z M 0.675781 1.285156 C 0.347656 1.457031 -0.0234375 1.347656 -0.21875 1.195312 C -0.414062 1.023438 -0.5 0.675781 -0.433594 0.28125 C -0.390625 -0.0234375 -0.109375 -1.066406 1.414062 -1.675781 C 1.457031 -1.5 1.480469 -1.328125 1.480469 -1.132812 C 1.546875 0.585938 1.023438 1.109375 0.675781 1.285156 Z M 0.675781 1.285156 "/></g></g></g><g fill="#000000" fill-opacity="1"><g transform="translate(131.538298, 74.624032)"><g><path d="M 8.160156 -4.441406 C 8.117188 -4.503906 8.007812 -4.546875 7.945312 -4.484375 C 7.921875 -4.484375 6.222656 -3.417969 4.636719 -3.785156 C 4.851562 -4.441406 4.941406 -5.113281 4.917969 -5.722656 C 4.851562 -6.832031 4.394531 -7.617188 3.613281 -7.898438 C 3.132812 -8.074219 2.65625 -8.050781 2.175781 -7.8125 C 1.261719 -7.335938 0.480469 -6.09375 0 -4.394531 C -0.414062 -2.917969 0.0859375 -1.851562 0.675781 -1.347656 C 1.023438 -1.066406 1.414062 -0.9375 1.828125 -0.9375 C 2.109375 -0.9375 2.371094 -1 2.632812 -1.132812 C 3.503906 -1.546875 4.15625 -2.460938 4.527344 -3.460938 C 4.789062 -3.417969 5.050781 -3.375 5.332031 -3.375 C 5.613281 -3.375 5.941406 -3.417969 6.269531 -3.480469 C 7.289062 -3.699219 8.074219 -4.199219 8.117188 -4.222656 C 8.183594 -4.265625 8.203125 -4.375 8.160156 -4.441406 Z M 2.960938 -1.71875 C 2.613281 -1.457031 2.242188 -1.4375 1.914062 -1.652344 C 1.4375 -1.980469 1.042969 -2.894531 1.457031 -4.441406 C 1.632812 -5.09375 1.894531 -5.660156 2.21875 -6.09375 C 2.242188 -5.679688 2.394531 -5.113281 2.9375 -4.484375 C 3.285156 -4.070312 3.679688 -3.765625 4.15625 -3.589844 C 4.179688 -3.570312 4.199219 -3.570312 4.222656 -3.570312 C 3.9375 -2.828125 3.503906 -2.15625 2.960938 -1.71875 Z M 4.332031 -3.875 C 4.308594 -3.875 4.289062 -3.875 4.265625 -3.894531 C 3.9375 -4.027344 3.679688 -4.308594 3.527344 -4.699219 C 3.175781 -5.59375 3.394531 -6.789062 3.527344 -7.160156 C 3.589844 -7.183594 3.632812 -7.183594 3.679688 -7.183594 C 3.984375 -7.226562 4.222656 -7.074219 4.351562 -6.769531 C 4.527344 -6.398438 4.59375 -5.984375 4.59375 -5.703125 C 4.636719 -5.136719 4.527344 -4.484375 4.332031 -3.875 Z M 4.332031 -3.875 "/></g></g></g><g fill="#000000" fill-opacity="1"><g transform="translate(93.293999, 89.257245)"><g><path d="M 5.125 0.167969 C 5.652344 0.167969 6.070312 0.113281 6.515625 0 L 6.515625 -1.019531 C 6.070312 -0.910156 5.652344 -0.851562 5.125 -0.851562 C 3.410156 -0.851562 1.792969 -2.097656 1.792969 -5.046875 C 1.792969 -8 3.410156 -9.253906 5.125 -9.253906 C 5.652344 -9.253906 6.070312 -9.199219 6.515625 -9.085938 L 6.515625 -10.097656 C 6.070312 -10.207031 5.664062 -10.265625 5.136719 -10.265625 C 2.558594 -10.265625 0.671875 -8.300781 0.671875 -5.046875 C 0.671875 -1.792969 2.546875 0.167969 5.125 0.167969 Z M 5.125 0.167969 "/></g></g></g><g fill="#000000" fill-opacity="1"><g transform="translate(104.141326, 89.257245)"><g><path d="M 2.199219 0.167969 C 3.980469 0.167969 4.945312 -1.234375 5.058594 -1.660156 L 5.058594 0 L 6.179688 0 L 6.179688 -3.914062 C 6.179688 -5.574219 4.957031 -6.898438 2.972656 -6.898438 C 2.054688 -6.898438 1.480469 -6.785156 0.832031 -6.460938 L 0.832031 -5.417969 C 1.390625 -5.722656 1.875 -5.890625 2.757812 -5.890625 C 4.183594 -5.890625 5.046875 -5.058594 5.058594 -3.824219 C 4.542969 -3.980469 3.980469 -4.070312 3.421875 -4.070312 C 1.839844 -4.070312 0.335938 -3.367188 0.335938 -1.605469 C 0.335938 -0.671875 1.042969 0.167969 2.199219 0.167969 Z M 1.457031 -1.726562 C 1.457031 -2.601562 2.578125 -3.050781 3.511719 -3.050781 C 3.949219 -3.050781 4.699219 -2.996094 5.058594 -2.828125 L 5.058594 -2.332031 C 4.824219 -1.480469 3.632812 -0.820312 2.46875 -0.820312 C 1.941406 -0.820312 1.457031 -1.132812 1.457031 -1.726562 Z M 1.457031 -1.726562 "/></g></g></g><g fill="#000000" fill-opacity="1"><g transform="translate(114.988652, 89.257245)"><g><path d="M 3.175781 0.167969 C 5.070312 0.167969 6.40625 -1.078125 6.40625 -3.523438 C 6.40625 -5.125 5.5625 -6.898438 3.714844 -6.898438 C 2.828125 -6.898438 2.019531 -6.238281 1.792969 -5.429688 L 1.792969 -10.097656 L 0.671875 -10.097656 L 0.671875 -2.121094 C 0.671875 -1.078125 1.558594 0.167969 3.175781 0.167969 Z M 1.792969 -4.476562 C 1.792969 -5.304688 2.390625 -5.945312 3.207031 -5.945312 C 4.6875 -5.945312 5.261719 -4.644531 5.261719 -3.488281 C 5.261719 -2.152344 4.667969 -0.839844 3.242188 -0.839844 C 2.445312 -0.839844 1.792969 -1.367188 1.792969 -2.355469 Z M 1.792969 -4.476562 "/></g></g></g><g fill="#000000" fill-opacity="1"><g transform="translate(126.060329, 89.257245)"><g><path d="M 0.671875 0 L 1.792969 0 L 1.792969 -6.730469 L 0.671875 -6.730469 Z M 0.582031 -8.414062 C 0.582031 -8.054688 0.875 -7.761719 1.222656 -7.761719 C 1.582031 -7.761719 1.875 -8.054688 1.875 -8.414062 C 1.875 -8.761719 1.582031 -9.050781 1.222656 -9.050781 C 0.875 -9.050781 0.582031 -8.761719 0.582031 -8.414062 Z M 0.582031 -8.414062 "/></g></g></g><g fill="#000000" fill-opacity="1"><g transform="translate(132.510392, 89.257245)"><g><path d="M 3.34375 0.179688 C 4.261719 0.179688 5.015625 -0.4375 5.292969 -1.265625 L 5.292969 0.0117188 L 6.417969 0.0117188 L 6.417969 -10.097656 L 5.292969 -10.097656 L 5.292969 -6.28125 C 4.957031 -6.664062 4.453125 -6.898438 3.8125 -6.898438 C 1.582031 -6.898438 0.671875 -4.992188 0.671875 -3.164062 C 0.671875 -1.378906 1.617188 0.179688 3.34375 0.179688 Z M 3.871094 -5.878906 C 4.65625 -5.878906 5.113281 -5.417969 5.292969 -4.835938 L 5.292969 -2.78125 C 5.292969 -1.515625 4.464844 -0.820312 3.511719 -0.820312 C 2.390625 -0.820312 1.804688 -1.964844 1.804688 -3.164062 C 1.804688 -4.488281 2.332031 -5.878906 3.871094 -5.878906 Z M 3.871094 -5.878906 "/></g></g></g><g fill="#000000" fill-opacity="1"><g transform="translate(143.593289, 89.257245)"><g><path d="M 0.671875 -3.367188 C 0.671875 -1.289062 1.875 0.167969 3.9375 0.167969 C 5.988281 0.167969 6.605469 -0.839844 6.605469 -0.839844 L 6.136719 -1.683594 C 5.6875 -1.15625 4.925781 -0.851562 4.21875 -0.851562 C 3.074219 -0.851562 2.019531 -1.46875 1.839844 -2.894531 C 2.253906 -2.511719 3.007812 -2.175781 3.835938 -2.175781 C 5.507812 -2.175781 6.472656 -3.355469 6.472656 -4.589844 C 6.472656 -6.078125 5.238281 -6.898438 3.902344 -6.898438 C 2.355469 -6.898438 0.671875 -5.8125 0.671875 -3.367188 Z M 1.875 -4.039062 C 2.121094 -5.304688 3.085938 -5.890625 3.9375 -5.890625 C 4.667969 -5.890625 5.351562 -5.40625 5.351562 -4.554688 C 5.351562 -3.871094 4.8125 -3.175781 3.746094 -3.175781 C 3.015625 -3.175781 2.265625 -3.5 1.875 -4.039062 Z M 1.875 -4.039062 "/></g></g></g></svg>